<svg width="290" height="32" viewBox="0 0 290 32" fill="none" xmlns="http://www.w3.org/2000/svg">
<path d="M26.6549 20.9406C26.1187 25.4632 21.906 28.2375 16.1997 28.2375C9.45942 28.2375 5.5531 24.361 5.5531 18.3563C5.5531 12.1615 9.65091 8.05701 16.5061 8.09501C21.8677 8.13302 26.8081 10.6793 26.8464 16.266L32.3229 16.342C32.3229 8.62708 25.506 4.21853 16.7359 4.21853C6.85521 4.21853 0 9.80523 0 18.5463C0 26.6793 5.93607 32 15.587 32C24.2805 32 31.6718 27.7055 32.0165 20.9406H26.6549Z" fill="white"/>
<path d="M49.4397 9.5772C42.6993 9.5772 35.308 13.4917 35.308 20.8266C35.308 27.7435 41.9334 32 49.2482 32C56.4481 32 62.9586 27.8955 62.9586 20.8266C62.9586 13.1876 55.9119 9.5772 49.4397 9.5772ZM41.0143 20.7506C41.0143 17.0641 43.7717 12.8456 49.2865 12.8456C54.3417 12.8456 57.214 16.4181 57.214 20.7506C57.214 25.4252 53.9204 28.9596 49.1716 28.9596C44.3844 28.9596 41.0143 25.3872 41.0143 20.7506Z" fill="white"/>
<path d="M84.4607 9.5772C79.865 9.5772 76.38 11.2874 73.929 15.772H72.6269L73.4694 13.4537V9.99525H67.7248V31.4299H73.4694V21.8907C73.4694 19.2304 76.6481 13.9857 82.6607 13.9857C87.9841 13.9857 88.4053 18.0903 88.4053 20.6366C88.4053 23.4109 88.4053 31.4299 88.4053 31.4299H94.0733C94.0733 31.4299 94.0733 22.2328 94.0733 19.4584C94.0733 11.6675 89.4777 9.5772 84.4607 9.5772Z" fill="white"/>
<path d="M116.564 13.4157H107.564C106.3 12.6936 104.194 12.0095 104.156 10.4133C104.117 9.19715 105.573 8.74109 107.985 8.74109C111.202 8.74109 118.517 8.74109 118.517 8.74109V4.75059C118.517 4.75059 104.692 4.75059 102.432 4.75059C99.2919 4.75059 97.7983 6.68884 97.7217 8.70309C97.6451 10.6793 99.0621 12.7696 101.666 13.0736L105.228 13.4157V14.6698L102.049 14.0998L96.7643 13.5297V17.1401L102.164 17.2162V31.3919H107.909V17.5202H116.564V13.4157Z" fill="white"/>
<path d="M144.062 21.0166C144.254 13.9097 139.313 9.5772 131.883 9.5772C125.028 9.5772 118.748 13.2637 118.748 20.8266C118.748 28.0855 124.799 31.962 132.113 31.962C138.088 31.962 144.024 29.4157 145.364 23.829H140.309C139.237 27.2494 135.33 28.5796 132.228 28.5796C127.786 28.5796 124.492 26.1473 124.416 21.9287C124.416 21.6247 124.416 21.3207 124.416 21.0166H144.062ZM124.645 18.8124C125.22 15.696 127.058 12.8836 131.845 12.8836C136.249 12.8836 138.356 15.3159 138.471 18.8124H124.645Z" fill="white"/>
<path d="M159.464 3.68646L154.179 4.94062V9.99525H148.167L148.205 14.0998H153.375L157.473 12.5416V13.7957C153.069 14.5558 151.269 17.9382 151.269 22.1948C151.269 27.8955 154.792 31.3919 161.149 31.3919H166.856V27.1354H161.418C157.167 27.1354 156.056 24.5891 156.056 20.7506C156.056 16.4941 157.167 14.0998 160.996 14.0998H166.894V9.99525H159.426L159.464 3.68646Z" fill="white"/>
<path d="M181.119 3.68646L175.834 4.94062V9.99525H169.821L169.859 14.0998H175.03L179.127 12.5416V13.7957C174.723 14.5558 172.923 17.9382 172.923 22.1948C172.923 27.8955 176.447 31.3919 182.804 31.3919H188.51V27.1354H183.072C178.821 27.1354 177.71 24.5891 177.71 20.7506C177.71 16.4941 178.821 14.0998 182.651 14.0998H188.548V9.99525H181.081L181.119 3.68646Z" fill="white"/>
<path d="M196.311 3.34442C196.311 5.35867 197.766 6.72684 199.949 6.72684C202.132 6.72684 203.587 5.35867 203.587 3.34442C203.587 1.33017 202.132 0 199.949 0C197.766 0 196.311 1.33017 196.311 3.34442ZM190.834 31.3919H209.6V27.1354H203.128V13.9857C203.128 11.7055 202.17 9.99525 199.107 9.99525H190.834V14.0998H197.383V27.1354H190.834V31.3919Z" fill="white"/>
<rect x="216" width="73.6" height="19.2" rx="9.6" fill="url(#paint0_linear_606_1388)"/>
<path d="M233.519 12.7916C233.104 13.2702 232.592 13.6512 231.983 13.9348C231.374 14.2095 230.672 14.3468 229.877 14.3468C229.153 14.3468 228.482 14.2272 227.864 13.9879C227.255 13.7487 226.726 13.4119 226.275 12.9777C225.825 12.5346 225.472 12.0074 225.216 11.3959C224.96 10.7845 224.832 10.111 224.832 9.37551C224.832 8.62228 224.96 7.93994 225.216 7.32849C225.481 6.71705 225.843 6.19865 226.302 5.77329C226.761 5.33908 227.299 5.00677 227.917 4.77637C228.535 4.54597 229.202 4.43077 229.917 4.43077C230.579 4.43077 231.228 4.5504 231.864 4.78966C232.508 5.02006 233.029 5.36123 233.426 5.81317L231.89 7.35508C231.678 7.06265 231.4 6.84554 231.056 6.70375C230.711 6.56197 230.358 6.49108 229.996 6.49108C229.599 6.49108 229.233 6.5664 228.897 6.71705C228.571 6.85883 228.288 7.05822 228.05 7.3152C227.811 7.57219 227.626 7.87791 227.494 8.23237C227.361 8.57797 227.295 8.95902 227.295 9.37551C227.295 9.80086 227.361 10.1908 227.494 10.5452C227.626 10.8997 227.807 11.2054 228.037 11.4624C228.275 11.7105 228.557 11.9055 228.884 12.0473C229.211 12.189 229.568 12.2599 229.957 12.2599C230.407 12.2599 230.8 12.1713 231.135 11.9941C231.471 11.8169 231.74 11.5865 231.943 11.3029L233.519 12.7916Z" fill="#171529"/>
<path d="M240.17 14.0943L238.144 10.3591H237.376V14.0943H235.151V4.68333H238.727C239.177 4.68333 239.614 4.73206 240.038 4.82954C240.47 4.91816 240.854 5.07323 241.19 5.29477C241.534 5.51631 241.808 5.80874 242.011 6.17206C242.214 6.53539 242.315 6.98732 242.315 7.52788C242.315 8.16591 242.143 8.70203 241.799 9.13625C241.455 9.57046 240.978 9.88062 240.369 10.0667L242.819 14.0943H240.17ZM240.077 7.56776C240.077 7.34622 240.029 7.16899 239.932 7.03606C239.843 6.89428 239.724 6.78794 239.574 6.71705C239.433 6.63729 239.27 6.58413 239.084 6.55754C238.908 6.53096 238.736 6.51766 238.568 6.51766H237.363V8.71089H238.435C238.621 8.71089 238.811 8.6976 239.005 8.67102C239.199 8.63557 239.376 8.57797 239.534 8.49822C239.693 8.41846 239.821 8.30326 239.919 8.15262C240.024 8.00197 240.077 7.80702 240.077 7.56776Z" fill="#171529"/>
<path d="M249.02 10.1066V14.0943H246.756V10.1066L243.233 4.68333H245.974L247.974 8.16591L249.973 4.68333H252.622L249.02 10.1066Z" fill="#171529"/>
<path d="M261.096 7.58105C261.096 8.13046 260.995 8.59569 260.791 8.97674C260.588 9.34892 260.315 9.65022 259.97 9.88062C259.626 10.111 259.229 10.2794 258.779 10.3857C258.328 10.4921 257.861 10.5452 257.375 10.5452H256.249V14.0943H253.985V4.68333H257.428C257.94 4.68333 258.417 4.73649 258.858 4.84283C259.308 4.94031 259.697 5.10425 260.023 5.33465C260.359 5.55619 260.619 5.85305 260.805 6.22523C260.999 6.58856 261.096 7.04049 261.096 7.58105ZM258.832 7.59434C258.832 7.3728 258.788 7.19114 258.699 7.04936C258.611 6.90757 258.492 6.7968 258.342 6.71705C258.192 6.63729 258.019 6.58413 257.825 6.55754C257.64 6.53096 257.446 6.51766 257.243 6.51766H256.249V8.73748H257.203C257.415 8.73748 257.618 8.71976 257.812 8.68431C258.006 8.64886 258.178 8.58683 258.328 8.49822C258.487 8.4096 258.611 8.2944 258.699 8.15262C258.788 8.00197 258.832 7.81588 258.832 7.59434Z" fill="#171529"/>
<path d="M267.052 6.624V14.0943H264.788V6.624H262.139V4.68333H269.701V6.624H267.052Z" fill="#171529"/>
<path d="M280.768 9.34892C280.768 10.0933 280.64 10.7756 280.384 11.3959C280.128 12.0074 279.77 12.5346 279.311 12.9777C278.861 13.4119 278.323 13.7487 277.696 13.9879C277.069 14.2272 276.389 14.3468 275.657 14.3468C274.924 14.3468 274.244 14.2272 273.617 13.9879C272.999 13.7487 272.461 13.4119 272.002 12.9777C271.552 12.5346 271.198 12.0074 270.942 11.3959C270.686 10.7756 270.558 10.0933 270.558 9.34892C270.558 8.59569 270.686 7.91779 270.942 7.3152C271.198 6.70375 271.552 6.18536 272.002 5.76C272.461 5.33465 272.999 5.00677 273.617 4.77637C274.244 4.54597 274.924 4.43077 275.657 4.43077C276.389 4.43077 277.069 4.54597 277.696 4.77637C278.323 5.00677 278.861 5.33465 279.311 5.76C279.77 6.18536 280.128 6.70375 280.384 7.3152C280.64 7.91779 280.768 8.59569 280.768 9.34892ZM278.345 9.34892C278.345 8.94129 278.279 8.56025 278.146 8.20579C278.014 7.85133 277.828 7.55003 277.59 7.30191C277.36 7.04492 277.078 6.84554 276.742 6.70375C276.416 6.55311 276.054 6.47779 275.657 6.47779C275.259 6.47779 274.897 6.55311 274.571 6.70375C274.244 6.84554 273.962 7.04492 273.723 7.30191C273.485 7.55003 273.299 7.85133 273.167 8.20579C273.043 8.56025 272.982 8.94129 272.982 9.34892C272.982 9.77428 273.048 10.1686 273.18 10.5319C273.313 10.8864 273.494 11.1921 273.723 11.4491C273.962 11.7061 274.244 11.9099 274.571 12.0606C274.897 12.2023 275.259 12.2732 275.657 12.2732C276.054 12.2732 276.416 12.2023 276.742 12.0606C277.069 11.9099 277.352 11.7061 277.59 11.4491C277.828 11.1921 278.014 10.8864 278.146 10.5319C278.279 10.1686 278.345 9.77428 278.345 9.34892Z" fill="#171529"/>
<defs>
<linearGradient id="paint0_linear_606_1388" x1="289.6" y1="19.2" x2="280.221" y2="-16.7533" gradientUnits="userSpaceOnUse">
<stop stop-color="#FF7B93"/>
<stop offset="1" stop-color="#FFDD63"/>
</linearGradient>
</defs>
</svg>
