<svg width="16" height="16" viewBox="0 0 16 16" fill="none" xmlns="http://www.w3.org/2000/svg">
<path d="M11.2695 9.76172C11.3398 9.26953 11.375 8.76562 11.375 8.25C11.375 7.73438 11.3398 7.23047 11.2695 6.73828H13.8008C13.918 7.23047 13.9766 7.73438 13.9766 8.25C13.9766 8.76562 13.918 9.26953 13.8008 9.76172H11.2695ZM9.93359 13.9102C10.3789 13.0898 10.7305 12.1992 10.9883 11.2383H13.2031C12.8281 11.8711 12.3594 12.4219 11.7969 12.8906C11.2578 13.3359 10.6367 13.6758 9.93359 13.9102ZM9.75781 9.76172H6.24219C6.17188 9.26953 6.13672 8.76562 6.13672 8.25C6.13672 7.73438 6.17188 7.23047 6.24219 6.73828H9.75781C9.82812 7.23047 9.86328 7.73438 9.86328 8.25C9.86328 8.76562 9.82812 9.26953 9.75781 9.76172ZM8 14.2266C7.36719 13.3125 6.88672 12.3164 6.55859 11.2383H9.44141C9.11328 12.3164 8.63281 13.3125 8 14.2266ZM5.01172 5.26172H2.79688C3.17188 4.62891 3.62891 4.08984 4.16797 3.64453C4.73047 3.17578 5.36328 2.82422 6.06641 2.58984C5.62109 3.41016 5.26953 4.30078 5.01172 5.26172ZM2.79688 11.2383H5.01172C5.26953 12.1992 5.62109 13.0898 6.06641 13.9102C5.36328 13.6758 4.73047 13.3359 4.16797 12.8906C3.62891 12.4219 3.17188 11.8711 2.79688 11.2383ZM2.19922 9.76172C2.08203 9.26953 2.02344 8.76562 2.02344 8.25C2.02344 7.73438 2.08203 7.23047 2.19922 6.73828H4.73047C4.66016 7.23047 4.625 7.73438 4.625 8.25C4.625 8.76562 4.66016 9.26953 4.73047 9.76172H2.19922ZM8 2.27344C8.63281 3.1875 9.11328 4.18359 9.44141 5.26172H6.55859C6.88672 4.18359 7.36719 3.1875 8 2.27344ZM13.2031 5.26172H10.9883C10.7305 4.30078 10.3789 3.41016 9.93359 2.58984C10.6367 2.82422 11.2578 3.17578 11.7969 3.64453C12.3594 4.08984 12.8281 4.62891 13.2031 5.26172ZM8 0.761719C5.86719 0.808594 4.09766 1.54687 2.69141 2.97656C1.28516 4.38281 0.558594 6.14062 0.511719 8.25C0.558594 10.3828 1.28516 12.1523 2.69141 13.5586C4.09766 14.9648 5.86719 15.6914 8 15.7383C10.1328 15.6914 11.9023 14.9648 13.3086 13.5586C14.7148 12.1523 15.4414 10.3828 15.4883 8.25C15.4414 6.11719 14.7148 4.34766 13.3086 2.94141C11.9023 1.53516 10.1328 0.808594 8 0.761719Z" fill="white"/>
</svg>
