<svg width="560" height="62" viewBox="0 0 560 62" fill="none" xmlns="http://www.w3.org/2000/svg">
<path d="M51.5426 40.5724C50.5058 49.3349 42.3597 54.7102 31.3255 54.7102C18.2917 54.7102 10.738 47.1995 10.738 35.5653C10.738 23.5629 18.662 15.6105 31.9179 15.6841C42.2857 15.7577 51.8388 20.6912 51.9129 31.5154L62.5028 31.6627C62.5028 16.715 49.3209 8.1734 32.3622 8.1734C13.2559 8.1734 0 18.9976 0 35.9335C0 51.6912 11.4786 62 30.1406 62C46.9512 62 61.2439 53.6793 61.9104 40.5724H51.5426Z" fill="white"/>
<path d="M95.6016 18.5558C82.5678 18.5558 68.2751 26.1401 68.2751 40.3515C68.2751 53.753 81.0867 62 95.2313 62C109.154 62 121.743 54.0475 121.743 40.3515C121.743 25.5511 108.117 18.5558 95.6016 18.5558ZM79.3094 40.2043C79.3094 33.0618 84.6414 24.8884 95.3053 24.8884C105.081 24.8884 110.635 31.81 110.635 40.2043C110.635 49.2613 104.266 56.1093 95.0832 56.1093C85.8262 56.1093 79.3094 49.1876 79.3094 40.2043Z" fill="white"/>
<path d="M163.322 18.5558C154.435 18.5558 147.696 21.8694 142.957 30.5582H140.439L142.068 26.0665V19.3658H130.96V60.8955H142.068V42.4133C142.068 37.2589 148.215 27.0974 159.841 27.0974C170.135 27.0974 170.95 35.0499 170.95 39.9834C170.95 45.3587 170.95 60.8955 170.95 60.8955H181.91C181.91 60.8955 181.91 43.076 181.91 37.7007C181.91 22.6057 173.023 18.5558 163.322 18.5558Z" fill="white"/>
<path d="M225.4 25.9929H207.997C205.553 24.5938 201.48 23.2684 201.406 20.1758C201.332 17.8195 204.146 16.9359 208.812 16.9359C215.032 16.9359 229.177 16.9359 229.177 16.9359V9.20428C229.177 9.20428 202.443 9.20428 198.074 9.20428C192.001 9.20428 189.113 12.9596 188.965 16.8622C188.817 20.6912 191.557 24.7411 196.592 25.3302L203.48 25.9929V28.4228L197.333 27.3183L187.113 26.2138V33.209L197.555 33.3563V60.8219H208.663V33.9454H225.4V25.9929Z" fill="white"/>
<path d="M278.573 40.7197C278.943 26.9501 269.39 18.5558 255.023 18.5558C241.767 18.5558 229.622 25.6983 229.622 40.3515C229.622 54.4157 241.323 61.9264 255.468 61.9264C267.02 61.9264 278.499 56.9929 281.091 46.1686H271.316C269.242 52.7957 261.688 55.3729 255.69 55.3729C247.099 55.3729 240.731 50.6603 240.583 42.4869C240.583 41.8979 240.583 41.3088 240.583 40.7197H278.573ZM241.027 36.4489C242.138 30.4109 245.692 24.962 254.949 24.962C263.466 24.962 267.539 29.6746 267.761 36.4489H241.027Z" fill="white"/>
<path d="M308.357 7.14252L298.137 9.57245V19.3658H286.51L286.584 27.3183H296.582L304.506 24.2993V26.7292C295.989 28.2019 292.509 34.7553 292.509 43.0024C292.509 54.0475 299.322 60.8219 311.615 60.8219H322.649V52.5748H312.133C303.913 52.5748 301.766 47.6413 301.766 40.2043C301.766 31.9572 303.913 27.3183 311.319 27.3183H322.723V19.3658H308.283L308.357 7.14252Z" fill="white"/>
<path d="M350.23 7.14252L340.01 9.57245V19.3658H328.383L328.457 27.3183H338.455L346.379 24.2993V26.7292C337.862 28.2019 334.382 34.7553 334.382 43.0024C334.382 54.0475 341.195 60.8219 353.488 60.8219H364.522V52.5748H354.007C345.786 52.5748 343.639 47.6413 343.639 40.2043C343.639 31.9572 345.786 27.3183 353.192 27.3183H364.597V19.3658H350.156L350.23 7.14252Z" fill="white"/>
<path d="M379.607 6.47981C379.607 10.3824 382.421 13.0333 386.642 13.0333C390.863 13.0333 393.677 10.3824 393.677 6.47981C393.677 2.5772 390.863 0 386.642 0C382.421 0 379.607 2.5772 379.607 6.47981ZM369.017 60.8219H405.304V52.5748H392.789V27.0974C392.789 22.6793 390.937 19.3658 385.013 19.3658H369.017V27.3183H381.68V52.5748H369.017V60.8219Z" fill="white"/>
<rect x="417.68" width="142.32" height="37.2" rx="18.6" fill="url(#paint0_linear_1163_2294)"/>
<path d="M451.555 24.7838C450.753 25.7109 449.763 26.4492 448.585 26.9986C447.407 27.5309 446.05 27.797 444.514 27.797C443.114 27.797 441.817 27.5652 440.622 27.1016C439.444 26.6381 438.419 25.9856 437.549 25.1443C436.678 24.2859 435.995 23.2643 435.5 22.0796C435.005 20.895 434.758 19.5901 434.758 18.1651C434.758 16.7057 435.005 15.3836 435.5 14.199C436.013 13.0143 436.712 12.0099 437.6 11.1858C438.488 10.3445 439.529 9.70063 440.724 9.25423C441.919 8.80783 443.208 8.58463 444.591 8.58463C445.871 8.58463 447.126 8.81641 448.355 9.27998C449.601 9.72638 450.608 10.3874 451.376 11.263L448.406 14.2505C447.996 13.6839 447.458 13.2632 446.793 12.9885C446.127 12.7138 445.444 12.5765 444.744 12.5765C443.976 12.5765 443.268 12.7224 442.619 13.0143C441.987 13.289 441.441 13.6753 440.98 14.1732C440.519 14.6711 440.161 15.2635 439.905 15.9502C439.649 16.6198 439.521 17.3581 439.521 18.1651C439.521 18.9892 439.649 19.7446 439.905 20.4314C440.161 21.1182 440.511 21.7105 440.954 22.2084C441.415 22.6891 441.962 23.0669 442.593 23.3416C443.225 23.6163 443.916 23.7536 444.667 23.7536C445.538 23.7536 446.298 23.5819 446.946 23.2386C447.595 22.8952 448.116 22.4488 448.508 21.8994L451.555 24.7838Z" fill="#161424"/>
<path d="M464.417 27.3077L460.499 20.0708H459.014V27.3077H454.712V9.07395H461.626C462.497 9.07395 463.342 9.16838 464.161 9.35724C464.998 9.52893 465.74 9.82939 466.389 10.2586C467.055 10.6879 467.584 11.2544 467.976 11.9584C468.369 12.6623 468.565 13.5379 468.565 14.5853C468.565 15.8215 468.232 16.8602 467.567 17.7015C466.901 18.5428 465.979 19.1437 464.801 19.5043L469.538 27.3077H464.417ZM464.238 14.6625C464.238 14.2333 464.144 13.8899 463.956 13.6324C463.786 13.3577 463.555 13.1516 463.265 13.0143C462.992 12.8598 462.676 12.7567 462.317 12.7052C461.976 12.6537 461.643 12.628 461.319 12.628H458.989V16.8774H461.063C461.421 16.8774 461.788 16.8516 462.164 16.8001C462.539 16.7314 462.881 16.6198 463.188 16.4653C463.495 16.3108 463.743 16.0876 463.931 15.7957C464.135 15.5038 464.238 15.1261 464.238 14.6625Z" fill="#161424"/>
<path d="M481.53 19.5815V27.3077H477.152V19.5815L470.34 9.07395H475.641L479.507 15.8215L483.374 9.07395H488.495L481.53 19.5815Z" fill="#161424"/>
<path d="M504.882 14.6883C504.882 15.7528 504.685 16.6542 504.293 17.3924C503.9 18.1135 503.371 18.6973 502.705 19.1437C502.039 19.5901 501.271 19.9163 500.401 20.1223C499.53 20.3284 498.625 20.4314 497.686 20.4314H495.51V27.3077H491.131V9.07395H497.789C498.779 9.07395 499.701 9.17696 500.554 9.38299C501.425 9.57186 502.176 9.88949 502.808 10.3359C503.456 10.7651 503.96 11.3403 504.318 12.0614C504.694 12.7653 504.882 13.641 504.882 14.6883ZM500.503 14.714C500.503 14.2848 500.418 13.9328 500.247 13.6581C500.076 13.3834 499.846 13.1688 499.556 13.0143C499.265 12.8598 498.932 12.7567 498.557 12.7052C498.198 12.6537 497.823 12.628 497.43 12.628H495.51V16.9289H497.353C497.763 16.9289 498.156 16.8945 498.531 16.8259C498.907 16.7572 499.24 16.637 499.53 16.4653C499.837 16.2936 500.076 16.0704 500.247 15.7957C500.418 15.5038 500.503 15.1433 500.503 14.714Z" fill="#161424"/>
<path d="M516.399 12.834V27.3077H512.02V12.834H506.899V9.07395H521.52V12.834H516.399Z" fill="#161424"/>
<path d="M542.921 18.1135C542.921 19.5558 542.674 20.8778 542.179 22.0796C541.684 23.2643 540.992 24.2859 540.105 25.1443C539.234 25.9856 538.193 26.6381 536.981 27.1016C535.769 27.5652 534.454 27.797 533.037 27.797C531.621 27.797 530.306 27.5652 529.094 27.1016C527.899 26.6381 526.858 25.9856 525.97 25.1443C525.099 24.2859 524.417 23.2643 523.922 22.0796C523.427 20.8778 523.179 19.5558 523.179 18.1135C523.179 16.6542 523.427 15.3407 523.922 14.1732C524.417 12.9885 525.099 11.9841 525.97 11.16C526.858 10.3359 527.899 9.70063 529.094 9.25423C530.306 8.80783 531.621 8.58463 533.037 8.58463C534.454 8.58463 535.769 8.80783 536.981 9.25423C538.193 9.70063 539.234 10.3359 540.105 11.16C540.992 11.9841 541.684 12.9885 542.179 14.1732C542.674 15.3407 542.921 16.6542 542.921 18.1135ZM538.235 18.1135C538.235 17.3238 538.107 16.5855 537.851 15.8987C537.595 15.2119 537.237 14.6282 536.776 14.1475C536.332 13.6495 535.786 13.2632 535.137 12.9885C534.505 12.6967 533.806 12.5507 533.037 12.5507C532.269 12.5507 531.569 12.6967 530.938 12.9885C530.306 13.2632 529.76 13.6495 529.299 14.1475C528.838 14.6282 528.479 15.2119 528.223 15.8987C527.984 16.5855 527.865 17.3238 527.865 18.1135C527.865 18.9377 527.993 19.7017 528.249 20.4056C528.505 21.0924 528.855 21.6847 529.299 22.1827C529.76 22.6806 530.306 23.0755 530.938 23.3673C531.569 23.642 532.269 23.7794 533.037 23.7794C533.806 23.7794 534.505 23.642 535.137 23.3673C535.769 23.0755 536.315 22.6806 536.776 22.1827C537.237 21.6847 537.595 21.0924 537.851 20.4056C538.107 19.7017 538.235 18.9377 538.235 18.1135Z" fill="#161424"/>
<defs>
<linearGradient id="paint0_linear_1163_2294" x1="560" y1="37.2" x2="541.797" y2="-32.442" gradientUnits="userSpaceOnUse">
<stop stop-color="#FF658A"/>
<stop offset="1" stop-color="#FFD84D"/>
</linearGradient>
</defs>
</svg>
