<svg width="800" height="766" viewBox="0 0 800 766" fill="none" xmlns="http://www.w3.org/2000/svg">
<g opacity="0.1" clip-path="url(#clip0_759_8482)">
<path opacity="0.0375" d="M553.008 326.372C851.656 436.416 400.314 766.94 355.242 549.045C332.824 440.646 122.438 507.69 128.787 395.845C135.058 284 229.826 293.633 323.888 238.885C440.917 169.883 473.917 297.236 553.008 326.372Z" stroke="#FF22B6" stroke-width="2" stroke-miterlimit="10"/>
<path opacity="0.075" d="M555.281 320.733C835.43 436.181 415.128 761.066 355.32 553.901C325.847 451.768 118.91 495.472 131.53 387.386C144.072 279.3 236.175 280.318 328.199 235.048C442.955 178.577 479.012 289.326 555.281 320.733Z" stroke="#FF22B6" stroke-width="2" stroke-miterlimit="10"/>
<path opacity="0.1125" d="M557.633 315.172C819.283 435.477 430.257 755.583 355.399 558.757C319.028 462.968 115.305 483.254 134.274 378.849C153.008 274.601 242.446 266.69 332.51 231.21C444.758 186.957 484.029 281.258 557.633 315.172Z" stroke="#FF22B6" stroke-width="2" stroke-miterlimit="10"/>
<path opacity="0.15" d="M559.906 309.533C802.979 434.067 445.62 750.179 355.477 563.613C312.287 474.325 111.699 471.035 137.017 370.39C162.022 269.901 248.56 253.14 336.9 227.372C446.482 195.416 488.889 273.113 559.906 309.533Z" stroke="#FF22B6" stroke-width="2" stroke-miterlimit="10"/>
<path opacity="0.1875" d="M562.257 303.894C786.831 431.952 461.454 744.853 355.634 568.469C305.938 485.603 108.172 458.817 139.839 361.853C171.115 265.202 254.752 239.669 341.211 223.612C448.128 203.797 493.827 264.889 562.257 303.894Z" stroke="#FF22B6" stroke-width="2" stroke-miterlimit="10"/>
<path opacity="0.225" d="M564.531 298.333C770.684 429.289 477.602 739.605 355.634 573.404C299.589 497.038 104.566 446.677 142.504 353.472C180.051 260.503 260.788 226.041 345.522 219.853C449.775 212.177 498.609 256.43 564.531 298.333Z" stroke="#FF22B6" stroke-width="2" stroke-miterlimit="10"/>
<path opacity="0.2625" d="M566.882 292.693C754.85 425.764 494.219 734.201 355.791 578.259C293.631 508.239 101.039 434.458 145.326 345.013C189.144 255.803 266.902 212.412 349.99 216.015C451.342 220.401 503.469 247.893 566.882 292.693Z" stroke="#FF22B6" stroke-width="2" stroke-miterlimit="10"/>
<path opacity="0.3" d="M569.155 287.133C739.251 421.535 511.15 728.483 355.869 583.194C287.752 519.439 97.4329 422.318 148.07 336.554C198.158 251.104 272.859 198.706 354.301 212.256C452.91 228.625 508.407 239.042 569.155 287.133Z" stroke="#FF22B6" stroke-width="2" stroke-miterlimit="10"/>
<path opacity="0.3375" d="M571.507 281.493C724.123 416.601 528.395 722.374 355.948 587.972C281.952 530.326 93.9056 410.022 150.813 328.017C207.094 246.326 278.895 184.843 358.613 208.339C454.556 236.692 513.424 230.035 571.507 281.493Z" stroke="#FF22B6" stroke-width="2" stroke-miterlimit="10"/>
<path opacity="0.375" d="M573.78 275.932C709.387 411.04 545.797 715.951 356.104 592.906C276.308 541.134 90.3782 397.881 153.635 319.558C216.187 241.705 285.087 170.979 363.081 204.58C456.124 244.76 518.519 220.871 573.78 275.932Z" stroke="#FF22B6" stroke-width="2" stroke-miterlimit="10"/>
<path opacity="0.4125" d="M576.132 270.293C695.277 404.852 563.277 709.059 356.183 597.762C270.586 551.786 86.7725 385.663 156.379 311.099C225.201 237.006 291.201 157.116 367.392 200.82C457.848 252.67 523.927 211.394 576.132 270.293Z" stroke="#FF22B6" stroke-width="2" stroke-miterlimit="10"/>
<path opacity="0.45" d="M578.405 264.732C681.795 398.351 580.678 701.853 356.261 602.696C264.864 562.36 83.1669 373.523 159.122 302.719C234.215 232.385 297.315 143.253 371.703 197.061C459.573 260.659 529.728 201.682 578.405 264.732Z" stroke="#FF22B6" stroke-width="2" stroke-miterlimit="10"/>
<path opacity="0.4875" d="M580.756 259.093C669.097 391.616 598.08 694.178 356.339 607.552C259.142 572.699 79.6394 361.304 161.866 294.182C243.229 227.607 303.586 129.233 376.092 193.223C461.376 268.57 535.92 191.813 580.756 259.093Z" stroke="#FF22B6" stroke-width="2" stroke-miterlimit="10"/>
<path opacity="0.525" d="M583.03 253.532C657.104 384.88 615.246 686.346 356.418 612.487C253.341 582.959 76.0337 349.086 164.609 285.723C252.244 222.908 309.857 115.37 380.404 189.385C463.257 276.481 542.661 181.788 583.03 253.532Z" stroke="#FF22B6" stroke-width="2" stroke-miterlimit="10"/>
<path opacity="0.5625" d="M585.381 247.893C645.973 378.379 632.334 678.278 356.575 617.264C247.384 593.141 72.5064 336.868 167.353 277.264C261.18 218.208 316.206 101.428 384.715 185.626C465.217 284.47 549.951 171.684 585.381 247.893Z" stroke="#FF22B6" stroke-width="2" stroke-miterlimit="10"/>
<path opacity="0.6" d="M587.654 242.253C635.548 372.426 649.187 669.976 356.575 622.12C241.348 603.245 68.9006 324.571 170.018 268.727C270.116 213.431 322.477 87.487 389.026 181.788C467.176 292.459 558.025 161.659 587.654 242.253Z" stroke="#FF22B6" stroke-width="2" stroke-miterlimit="10"/>
<path d="M431.197 633.086C217.519 1067.15 -50.7938 292.145 231.863 301.074C373.427 305.617 325.22 -24.5151 463.727 2.34977C602.234 29.2146 552.459 165.967 603.096 319.558C666.353 511.372 486.38 520.927 431.197 633.086Z" stroke="#FF22B6" stroke-width="2" stroke-miterlimit="10"/>
<path opacity="0.95" d="M437.233 637.707C221.282 1044.44 -47.8934 314.781 225.985 300.134C362.061 292.85 340.819 -26.7865 473.055 8.30225C605.291 43.3127 567.117 178.107 606.388 326.764C656.085 511.998 494.219 530.326 437.233 637.707Z" stroke="#FF22B6" stroke-width="2" stroke-miterlimit="10"/>
<path opacity="0.9" d="M443.268 642.328C225.671 1021.72 -45.4637 337.573 220.106 299.116C350.539 280.24 356.496 -29.1362 482.461 14.2548C608.426 57.4108 581.383 190.325 609.759 333.891C645.111 512.781 502.214 539.646 443.268 642.328Z" stroke="#FF22B6" stroke-width="2" stroke-miterlimit="10"/>
<path opacity="0.85" d="M449.383 647.027C230.688 999.09 -43.4254 360.835 214.305 298.176C338.781 267.787 372.095 -31.4859 491.789 20.2073C611.483 71.5873 595.806 202.465 613.051 341.097C634.529 513.408 510.288 548.967 449.383 647.027Z" stroke="#FF22B6" stroke-width="2" stroke-miterlimit="10"/>
<path opacity="0.8" d="M455.418 651.648C236.331 976.454 -41.7795 384.566 208.426 297.08C326.866 255.725 387.693 -33.8356 501.195 26.1599C614.619 85.6855 610.308 214.527 616.422 348.303C623.947 513.956 518.44 558.209 455.418 651.648Z" stroke="#FF22B6" stroke-width="2" stroke-miterlimit="10"/>
<path opacity="0.75" d="M461.532 656.269C242.759 953.897 -40.1335 408.847 202.547 296.061C314.952 243.898 403.292 -36.107 510.601 32.1125C617.676 99.7836 624.809 226.589 619.714 355.43C613.443 514.505 526.827 567.373 461.532 656.269Z" stroke="#FF22B6" stroke-width="2" stroke-miterlimit="10"/>
<path opacity="0.7" d="M467.568 660.89C250.049 931.575 -38.644 433.753 196.669 295.043C303.037 232.385 418.969 -38.4567 519.929 38.065C620.811 113.96 639.388 238.572 623.084 362.636C603.018 514.974 535.371 576.536 467.568 660.89Z" stroke="#FF22B6" stroke-width="2" stroke-miterlimit="10"/>
<path opacity="0.65" d="M473.603 665.59C258.122 909.645 -36.7629 459.365 190.789 294.103C291.279 221.106 434.568 -40.8063 529.335 43.9393C623.868 127.98 654.046 250.477 626.455 369.685C592.671 515.366 544.15 585.7 473.603 665.59Z" stroke="#FF22B6" stroke-width="2" stroke-miterlimit="10"/>
<path opacity="0.6" d="M479.718 670.211C267.215 888.106 -34.5679 485.368 184.911 293.085C279.679 210.141 450.167 -43.0777 538.663 49.9701C626.925 142.156 668.705 262.539 629.747 376.969C582.324 515.836 553.086 594.942 479.718 670.211Z" stroke="#FF22B6" stroke-width="2" stroke-miterlimit="10"/>
<path opacity="0.55" d="M485.753 674.832C277.013 867.115 -31.9029 511.685 179.032 292.145C268.234 199.254 465.765 -45.4274 548.07 55.9227C630.061 156.255 683.598 274.523 633.118 384.097C572.212 516.306 562.336 604.263 485.753 674.832Z" stroke="#FF22B6" stroke-width="2" stroke-miterlimit="10"/>
<path opacity="0.5" d="M491.789 679.531C287.752 846.829 -28.7675 538.315 173.153 291.127C257.025 188.445 481.364 -47.7771 557.397 61.7969C633.196 170.353 698.413 286.506 636.41 391.302C562.101 516.854 571.82 613.818 491.789 679.531Z" stroke="#FF22B6" stroke-width="2" stroke-miterlimit="10"/>
<path opacity="0.45" d="M497.903 684.152C299.275 827.405 -25.0834 564.945 167.274 290.109C246.051 177.637 497.041 -50.0485 566.804 67.7495C636.253 184.451 713.306 298.568 639.702 398.43C552.067 517.402 581.618 623.765 497.903 684.152Z" stroke="#FF22B6" stroke-width="2" stroke-miterlimit="10"/>
<path opacity="0.4" d="M503.939 688.773C311.268 808.921 -20.9289 591.574 161.395 289.091C235.156 166.828 512.64 -52.3982 576.132 73.702C639.31 198.549 728.199 310.708 642.994 405.557C542.034 518.107 591.652 634.104 503.939 688.773Z" stroke="#FF22B6" stroke-width="2" stroke-miterlimit="10"/>
<path opacity="0.35" d="M509.974 693.394C323.653 791.612 -16.4611 618.126 155.595 288.151C224.417 155.941 528.238 -54.7479 585.538 79.6546C642.445 212.726 743.249 322.926 646.365 412.763C532.001 518.812 601.92 644.991 509.974 693.394Z" stroke="#FF22B6" stroke-width="2" stroke-miterlimit="10"/>
<path opacity="0.3" d="M516.088 698.094C335.959 775.399 -11.6796 644.599 149.716 287.133C213.835 145.054 543.915 -57.0976 594.944 85.6071C645.581 226.824 758.22 335.223 649.735 419.89C522.046 519.674 612.345 656.739 516.088 698.094Z" stroke="#FF22B6" stroke-width="2" stroke-miterlimit="10"/>
<path opacity="0.25" d="M522.124 702.715C347.874 760.361 -6.66288 670.837 143.837 286.114C203.331 134.011 559.514 -59.4472 604.272 91.5597C648.638 240.922 773.114 347.598 653.027 427.096C512.012 520.535 622.849 669.428 522.124 702.715Z" stroke="#FF22B6" stroke-width="2" stroke-miterlimit="10"/>
<path opacity="0.2" d="M528.16 707.336C358.848 746.419 -1.48945 696.997 137.958 285.174C192.828 122.967 575.113 -61.7186 613.6 97.5123C651.695 255.098 787.929 359.973 656.32 434.302C501.901 521.475 633.118 683.134 528.16 707.336Z" stroke="#FF22B6" stroke-width="2" stroke-miterlimit="10"/>
<path opacity="0.2" d="M193.533 518.891C-301.783 477.144 300.372 -143.566 414.815 162.677C472.114 316.034 757.28 122.419 792.553 282.12C827.827 441.821 679.287 447.46 558.887 567.842C408.466 718.066 321.536 529.621 193.533 518.891Z" stroke="#FF22B6" stroke-width="2" stroke-miterlimit="10"/>
<path opacity="0.2125" d="M191.887 527.35C-278.581 471.505 280.776 -130.565 413.247 156.02C479.091 298.568 766.294 138.162 791.142 294.73C816.069 451.219 674.505 468.451 553.713 574.5C403.449 707.336 316.284 542.074 191.887 527.35Z" stroke="#FF22B6" stroke-width="2.0625" stroke-miterlimit="10"/>
<path opacity="0.225" d="M190.163 535.808C-255.223 466.492 260.788 -117.876 411.523 149.284C485.753 280.867 775.152 153.827 789.575 307.262C804.233 460.618 669.175 488.893 548.383 581.079C397.962 696.058 311.268 554.684 190.163 535.808Z" stroke="#FF22B6" stroke-width="2.125" stroke-miterlimit="10"/>
<path opacity="0.2375" d="M188.516 544.346C-231.472 462.263 240.329 -105.501 409.955 142.548C492.338 263.009 784.088 169.491 788.164 319.872C792.475 470.017 664.237 509.648 543.21 587.737C392.71 684.936 306.329 567.373 188.516 544.346Z" stroke="#FF22B6" stroke-width="2.1875" stroke-miterlimit="10"/>
<path opacity="0.25" d="M186.87 552.804C-207.486 458.817 219.4 -93.2045 408.387 135.891C498.609 245.23 793.102 185.234 786.831 332.482C780.874 479.416 659.455 530.326 538.193 594.394C387.615 673.892 301.47 580.139 186.87 552.804Z" stroke="#FF22B6" stroke-width="2.25" stroke-miterlimit="10"/>
<path opacity="0.2625" d="M185.146 561.263C-183.421 456.232 197.766 -80.9078 406.741 129.155C504.488 227.45 802.038 200.977 785.342 345.013C769.116 488.736 654.595 551.003 532.941 601.052C382.598 662.848 296.767 593.063 185.146 561.263Z" stroke="#FF22B6" stroke-width="2.3125" stroke-miterlimit="10"/>
<path opacity="0.275" d="M183.5 569.801C-159.201 454.744 175.583 -68.3761 405.095 122.419C510.053 209.749 810.896 216.642 783.853 357.623C757.28 498.213 649.735 571.759 527.69 607.709C377.66 651.883 292.22 606.299 183.5 569.801Z" stroke="#FF22B6" stroke-width="2.375" stroke-miterlimit="10"/>
<path opacity="0.2875" d="M181.854 578.26C-135.058 454.352 152.851 -55.5311 403.449 115.762C515.461 192.283 819.831 232.385 782.363 370.233C745.522 507.612 645.032 592.593 522.438 614.366C372.8 640.918 287.674 619.692 181.854 578.26Z" stroke="#FF22B6" stroke-width="2.4375" stroke-miterlimit="10"/>
<path opacity="0.3" d="M180.129 586.718C-110.994 454.979 129.728 -42.1379 401.803 109.026C520.635 175.052 828.767 248.049 780.874 382.843C733.764 516.933 640.408 613.505 517.264 621.024C367.94 630.109 283.128 633.321 180.129 586.718Z" stroke="#FF22B6" stroke-width="2.5" stroke-miterlimit="10"/>
<path opacity="0.3125" d="M178.483 595.256C-87.2428 456.859 106.447 -28.118 400.235 102.368C525.73 158.056 837.782 263.792 779.541 395.453C722.007 526.331 635.783 634.495 512.091 627.681C363.159 619.457 278.503 647.34 178.483 595.256Z" stroke="#FF22B6" stroke-width="2.5625" stroke-miterlimit="10"/>
<path opacity="0.325" d="M176.837 603.715C-63.9623 459.757 83.01 -13.4716 398.589 95.6325C530.825 141.295 846.639 279.535 778.052 407.985C710.327 535.73 631.08 655.565 506.839 634.339C358.299 608.884 273.8 661.752 176.837 603.715Z" stroke="#FF22B6" stroke-width="2.625" stroke-miterlimit="10"/>
<path opacity="0.3375" d="M175.113 612.252C-41.2307 463.673 59.6512 1.72311 396.943 88.8967C535.842 124.769 855.575 295.2 776.563 420.595C698.57 545.129 626.377 676.712 501.666 640.918C353.439 598.388 268.783 676.477 175.113 612.252Z" stroke="#FF22B6" stroke-width="2.6875" stroke-miterlimit="10"/>
<path opacity="0.35" d="M173.467 620.711C-19.3612 468.451 36.4491 17.466 395.375 82.1609C541.093 108.477 864.589 310.864 775.152 433.127C686.812 554.528 621.517 697.937 496.414 647.575C348.423 588.05 263.453 691.75 173.467 620.711Z" stroke="#FF22B6" stroke-width="2.75" stroke-miterlimit="10"/>
<path opacity="0.3625" d="M171.821 629.169C1.56773 473.855 13.4823 33.6006 393.729 75.5035C546.424 92.2646 873.526 326.607 773.663 445.737C675.054 563.926 616.657 719.241 491.241 654.233C343.406 577.633 257.496 707.414 171.821 629.169Z" stroke="#FF22B6" stroke-width="2.8125" stroke-miterlimit="10"/>
<path opacity="0.375" d="M170.096 637.707C21.3208 479.494 -9.171 50.0485 392.083 68.7677C551.832 76.2084 882.383 342.272 772.252 458.347C663.296 573.325 611.719 740.467 486.067 660.89C338.232 567.294 250.833 723.47 170.096 637.707Z" stroke="#FF22B6" stroke-width="2.875" stroke-miterlimit="10"/>
<path opacity="0.3875" d="M168.45 646.166C39.8196 485.133 -31.511 66.653 390.437 62.0319C557.398 60.2305 891.319 358.015 770.762 470.879C651.538 582.724 606.702 761.771 480.815 667.548C332.981 556.877 243.308 739.918 168.45 646.166Z" stroke="#FF22B6" stroke-width="2.9375" stroke-miterlimit="10"/>
<path opacity="0.4" d="M166.804 654.625C56.9862 490.303 -53.6154 83.4924 388.869 55.3744C563.12 44.3309 900.333 373.758 769.351 483.489C639.781 592.123 601.685 782.996 475.642 674.205C327.729 546.46 234.764 756.445 166.804 654.625Z" stroke="#FF22B6" stroke-width="3" stroke-miterlimit="10"/>
</g>
<defs>
<clipPath id="clip0_759_8482">
<rect width="800" height="766" fill="white"/>
</clipPath>
</defs>
</svg>
