<svg width="112" height="112" viewBox="0 0 112 112" fill="none" xmlns="http://www.w3.org/2000/svg">
<rect opacity="0.3" x="1" y="1" width="110" height="110" rx="19" stroke="#FF5549" stroke-width="2"/>
<mask id="mask0_1011_2271" style="mask-type:alpha" maskUnits="userSpaceOnUse" x="0" y="0" width="112" height="112">
<rect x="1" y="1" width="110" height="110" rx="19" stroke="black" stroke-width="2"/>
</mask>
<g mask="url(#mask0_1011_2271)">
<path d="M92 -6.35383C102.945 -0.0345116 112.035 9.05462 118.354 20C124.673 30.9454 128 43.3614 128 56C128 68.6387 124.673 81.0546 118.354 92C112.035 102.945 102.945 112.035 92 118.354L56 56L92 -6.35383Z" fill="#FF5549"/>
</g>
<rect x="16.5" y="16.5" width="79" height="79" rx="19.5" fill="url(#paint0_linear_1011_2271)"/>
<rect x="16.5" y="16.5" width="79" height="79" rx="19.5" fill="url(#paint1_angular_1011_2271)" fill-opacity="0.3"/>
<path d="M74.4329 52.6848C73.5671 46.5542 68.3729 42 62.2486 42H49.7514C43.6271 42 38.4343 46.5542 37.5671 52.6848C37.4686 53.3834 36 63.5264 36 64.232C36 67.417 38.5543 70 41.7043 70C43.8657 70 45.84 68.7652 46.8071 66.8108L50.2857 60.2H61.7143L65.1929 66.8108C66.1586 68.7652 68.1343 70 70.2957 70C73.4457 70 76 67.417 76 64.232C76 63.5264 74.5314 53.3834 74.4329 52.6848ZM64.5714 46.2C65.6229 46.2 66.4757 47.0358 66.4757 48.0662C66.4757 49.0966 65.6229 49.9324 64.5714 49.9324C63.52 49.9324 62.6671 49.0966 62.6671 48.0662C62.6671 47.0358 63.52 46.2 64.5714 46.2ZM51.7143 53.2H48.8571V56H46V53.2H43.1429V50.4H46V47.6H48.8571V50.4H51.7143V53.2ZM60.7614 53.6662C59.71 53.6662 58.8571 52.8304 58.8571 51.8C58.8571 50.7696 59.71 49.9338 60.7614 49.9338C61.8129 49.9338 62.6657 50.7696 62.6657 51.8C62.6671 52.8304 61.8143 53.6662 60.7614 53.6662ZM64.5714 57.4C63.52 57.4 62.6671 56.5642 62.6671 55.5338C62.6671 54.5034 63.52 53.6676 64.5714 53.6676C65.6229 53.6676 66.4757 54.5034 66.4757 55.5338C66.4757 56.5642 65.6229 57.4 64.5714 57.4ZM68.3814 53.6662C67.33 53.6662 66.4771 52.8304 66.4771 51.8C66.4771 50.7696 67.33 49.9338 68.3814 49.9338C69.4329 49.9338 70.2857 50.7696 70.2857 51.8C70.2857 52.8304 69.4329 53.6662 68.3814 53.6662Z" fill="white"/>
<rect x="16.5" y="16.5" width="79" height="79" rx="19.5" stroke="url(#paint2_radial_1011_2271)"/>
<defs>
<linearGradient id="paint0_linear_1011_2271" x1="96" y1="96" x2="16" y2="16" gradientUnits="userSpaceOnUse">
<stop stop-color="#EA453A"/>
<stop offset="1" stop-color="#FF827A"/>
</linearGradient>
<radialGradient id="paint1_angular_1011_2271" cx="0" cy="0" r="1" gradientUnits="userSpaceOnUse" gradientTransform="translate(56 56) rotate(90) scale(40)">
<stop stop-color="white"/>
<stop offset="1" stop-color="white" stop-opacity="0"/>
</radialGradient>
<radialGradient id="paint2_radial_1011_2271" cx="0" cy="0" r="1" gradientUnits="userSpaceOnUse" gradientTransform="translate(56 96) rotate(-90) scale(80 74.8432)">
<stop stop-color="white"/>
<stop offset="1" stop-color="#7E430C" stop-opacity="0"/>
</radialGradient>
</defs>
</svg>
