<svg width="113" height="112" viewBox="0 0 113 112" fill="none" xmlns="http://www.w3.org/2000/svg">
<rect opacity="0.3" x="1.66663" y="1" width="110" height="110" rx="19" stroke="#FF7B93" stroke-width="2"/>
<mask id="mask0_606_1350" style="mask-type:alpha" maskUnits="userSpaceOnUse" x="0" y="0" width="113" height="112">
<rect x="1.66663" y="1" width="110" height="110" rx="19" stroke="black" stroke-width="2"/>
</mask>
<g mask="url(#mask0_606_1350)">
<path d="M56.6666 -16C69.3053 -16 81.7212 -12.6731 92.6666 -6.35383C103.612 -0.0345078 112.701 9.05462 119.02 20C125.34 30.9454 128.667 43.3614 128.667 56C128.667 68.6386 125.34 81.0546 119.02 92L56.6666 56V-16Z" fill="#FF7B93"/>
</g>
<rect x="17.1666" y="16.5" width="79" height="79" rx="19.5" fill="url(#paint0_linear_606_1350)"/>
<rect x="17.1666" y="16.5" width="79" height="79" rx="19.5" fill="url(#paint1_angular_606_1350)" fill-opacity="0.3"/>
<g clip-path="url(#clip0_606_1350)">
<path d="M43.776 57.25H49.2448V59.5938H43.776V57.25Z" fill="white"/>
<path d="M50.4732 47.875L71.6996 40.1493L71.0317 38.3142C70.3676 36.4896 68.3502 35.5489 66.5257 36.213L40.0969 45.8323C38.9208 46.2603 38.113 47.2509 37.8644 48.3894C38.5964 48.06 39.4069 47.875 40.2604 47.875H50.4732Z" fill="white"/>
<path d="M73.3029 44.5539L72.5012 42.3516L57.326 47.8749H64.1786L73.3029 44.5539Z" fill="white"/>
<path d="M74.5838 48.0735L74.1044 46.7563L71.0313 47.8749H73.0729C73.5953 47.8749 74.1015 47.9446 74.5838 48.0735Z" fill="white"/>
<path d="M73.0729 50.2188H40.2604C38.3219 50.2188 36.7448 51.7959 36.7448 53.7344V72.4844C36.7448 74.4229 38.3219 76 40.2604 76H73.0729C75.0114 76 76.5885 74.4229 76.5885 72.4844V53.7344C76.5885 51.7959 75.0115 50.2188 73.0729 50.2188ZM41.4323 56.0781C41.4323 55.4309 41.9569 54.9062 42.6041 54.9062H50.4166C51.0638 54.9062 51.5885 55.4309 51.5885 56.0781V60.7656C51.5885 61.4128 51.0638 61.9375 50.4166 61.9375H42.6041C41.9569 61.9375 41.4323 61.4128 41.4323 60.7656V56.0781ZM42.6041 64.2812H45.7291C46.3763 64.2812 46.901 64.8059 46.901 65.4531C46.901 66.1003 46.3763 66.625 45.7291 66.625H42.6041C41.9569 66.625 41.4323 66.1003 41.4323 65.4531C41.4323 64.8059 41.9569 64.2812 42.6041 64.2812ZM50.4166 71.3125H42.6041C41.9569 71.3125 41.4323 70.7878 41.4323 70.1406C41.4323 69.4934 41.9569 68.9687 42.6041 68.9687H50.4166C51.0638 68.9687 51.5885 69.4934 51.5885 70.1406C51.5885 70.7878 51.0638 71.3125 50.4166 71.3125ZM53.5416 66.625H50.4166C49.7694 66.625 49.2448 66.1003 49.2448 65.4531C49.2448 64.8059 49.7694 64.2812 50.4166 64.2812H53.5416C54.1888 64.2812 54.7135 64.8059 54.7135 65.4531C54.7135 66.1003 54.1888 66.625 53.5416 66.625ZM61.3541 66.625H58.2291C57.5819 66.625 57.0573 66.1003 57.0573 65.4531C57.0573 64.8059 57.5819 64.2812 58.2291 64.2812H61.3541C62.0013 64.2812 62.526 64.8059 62.526 65.4531C62.526 66.1003 62.0013 66.625 61.3541 66.625ZM69.1666 66.625H66.0416C65.3944 66.625 64.8698 66.1003 64.8698 65.4531C64.8698 64.8059 65.3944 64.2812 66.0416 64.2812H69.1666C69.8138 64.2812 70.3385 64.8059 70.3385 65.4531C70.3385 66.1003 69.8138 66.625 69.1666 66.625Z" fill="white"/>
</g>
<rect x="17.1666" y="16.5" width="79" height="79" rx="19.5" stroke="url(#paint2_radial_606_1350)"/>
<defs>
<linearGradient id="paint0_linear_606_1350" x1="96.6666" y1="96" x2="16.6666" y2="16" gradientUnits="userSpaceOnUse">
<stop stop-color="#FF7B93"/>
<stop offset="1" stop-color="#FFDD63"/>
</linearGradient>
<radialGradient id="paint1_angular_606_1350" cx="0" cy="0" r="1" gradientUnits="userSpaceOnUse" gradientTransform="translate(56.6666 56) rotate(90) scale(40)">
<stop stop-color="white"/>
<stop offset="1" stop-color="white" stop-opacity="0"/>
</radialGradient>
<radialGradient id="paint2_radial_606_1350" cx="0" cy="0" r="1" gradientUnits="userSpaceOnUse" gradientTransform="translate(56.6666 96) rotate(-90) scale(80 74.8432)">
<stop stop-color="white"/>
<stop offset="1" stop-color="#7E430C" stop-opacity="0"/>
</radialGradient>
<clipPath id="clip0_606_1350">
<rect width="40" height="40" fill="white" transform="translate(36.6666 36)"/>
</clipPath>
</defs>
</svg>
