<svg width="112" height="112" viewBox="0 0 112 112" fill="none" xmlns="http://www.w3.org/2000/svg">
<rect opacity="0.3" x="1" y="1" width="110" height="110" rx="19" stroke="#74DEF9" stroke-width="2"/>
<mask id="mask0_606_1336" style="mask-type:alpha" maskUnits="userSpaceOnUse" x="0" y="0" width="112" height="112">
<rect x="1" y="1" width="110" height="110" rx="19" stroke="black" stroke-width="2"/>
</mask>
<g mask="url(#mask0_606_1336)">
<path d="M125.547 74.635C123.099 83.768 118.877 92.3295 113.121 99.8308C107.365 107.332 100.188 113.626 92 118.354C83.8116 123.081 74.7722 126.15 65.3979 127.384C56.0236 128.618 46.498 127.994 37.365 125.547L56 56L125.547 74.635Z" fill="#74DEF9"/>
</g>
<rect x="16.5" y="16.5" width="79" height="79" rx="19.5" fill="url(#paint0_linear_606_1336)"/>
<rect x="16.5" y="16.5" width="79" height="79" rx="19.5" fill="url(#paint1_angular_606_1336)" fill-opacity="0.3"/>
<path d="M62.6261 36H49.317C46.9683 36.0027 45.065 37.906 45.0626 40.2547V71.7455C45.065 74.0943 46.9683 75.9976 49.317 75.9999H62.6261C64.9748 75.9976 66.8781 74.0943 66.8808 71.7455V40.2547C66.8781 37.906 64.9748 36.0027 62.6261 36V36ZM55.9717 72.3637C54.9673 72.3637 54.1533 71.5498 54.1533 70.5453C54.1533 69.5413 54.9673 68.7273 55.9717 68.7273C56.9758 68.7273 57.7898 69.5413 57.7898 70.5453C57.7898 71.5498 56.9758 72.3637 55.9717 72.3637ZM58.699 41.4545H53.2444C52.7424 41.4545 52.3352 41.0474 52.3352 40.5453C52.3352 40.0433 52.7424 39.6365 53.2444 39.6365H58.699C59.201 39.6365 59.6079 40.0433 59.6079 40.5453C59.6079 41.0474 59.201 41.4545 58.699 41.4545Z" fill="white"/>
<rect x="16.5" y="16.5" width="79" height="79" rx="19.5" stroke="url(#paint2_radial_606_1336)"/>
<defs>
<linearGradient id="paint0_linear_606_1336" x1="96" y1="96" x2="16" y2="16" gradientUnits="userSpaceOnUse">
<stop stop-color="#2E7688"/>
<stop offset="1" stop-color="#74DEF9"/>
</linearGradient>
<radialGradient id="paint1_angular_606_1336" cx="0" cy="0" r="1" gradientUnits="userSpaceOnUse" gradientTransform="translate(56 56) rotate(90) scale(40)">
<stop stop-color="white"/>
<stop offset="1" stop-color="white" stop-opacity="0"/>
</radialGradient>
<radialGradient id="paint2_radial_606_1336" cx="0" cy="0" r="1" gradientUnits="userSpaceOnUse" gradientTransform="translate(56 96) rotate(-90) scale(80 74.8432)">
<stop stop-color="white"/>
<stop offset="1" stop-color="#7E430C" stop-opacity="0"/>
</radialGradient>
</defs>
</svg>
