<svg width="113" height="112" viewBox="0 0 113 112" fill="none" xmlns="http://www.w3.org/2000/svg">
<rect opacity="0.3" x="1.66669" y="1" width="110" height="110" rx="19" stroke="#CCFF60" stroke-width="2"/>
<mask id="mask0_606_1301" style="mask-type:alpha" maskUnits="userSpaceOnUse" x="0" y="0" width="113" height="112">
<rect x="1.66669" y="1" width="110" height="110" rx="19" stroke="black" stroke-width="2"/>
</mask>
<g mask="url(#mask0_606_1301)">
<path d="M38.0317 125.547C28.8987 123.099 20.3372 118.877 12.8359 113.121C5.33456 107.365 -0.959559 100.188 -5.68715 92C-10.4147 83.8116 -13.4832 74.7722 -14.7173 65.3979C-15.9515 56.0236 -15.3271 46.498 -12.88 37.365L56.6667 56L38.0317 125.547Z" fill="#CCFF60"/>
</g>
<rect x="17.1667" y="16.5" width="79" height="79" rx="19.5" fill="url(#paint0_linear_606_1301)"/>
<rect x="17.1667" y="16.5" width="79" height="79" rx="19.5" fill="url(#paint1_angular_606_1301)" fill-opacity="0.3"/>
<path d="M64.28 52.3306C64.0511 52.3307 63.8313 52.4202 63.6676 52.5802C63.5039 52.7401 63.4092 52.9578 63.4038 53.1866H61.4782C61.3549 52.5024 61.0863 51.8526 60.6906 51.2809L62.051 49.9209C62.2184 50.0777 62.4406 50.1627 62.67 50.1576C62.8993 50.1524 63.1175 50.0576 63.2777 49.8935C63.4379 49.7294 63.5275 49.509 63.5271 49.2796C63.5268 49.0503 63.4365 48.8302 63.2758 48.6665L62.0652 47.456C61.901 47.2984 61.6818 47.2108 61.4542 47.2118C61.2265 47.2127 61.0081 47.3022 60.8452 47.4612C60.6823 47.6202 60.5876 47.8364 60.5811 48.0639C60.5746 48.2915 60.6568 48.5127 60.8104 48.6808L59.45 50.0412C58.8784 49.6452 58.2286 49.3764 57.5443 49.2527V47.3271C57.7718 47.3169 57.9865 47.2187 58.1429 47.0532C58.2993 46.8877 58.3852 46.6678 58.3824 46.4401C58.3796 46.2124 58.2884 45.9947 58.1281 45.833C57.9677 45.6714 57.7508 45.5784 57.5231 45.5737H55.8112C55.5835 45.5784 55.3666 45.6714 55.2062 45.833C55.0459 45.9947 54.9547 46.2124 54.9519 46.4401C54.9491 46.6678 55.035 46.8877 55.1914 47.0532C55.3478 47.2187 55.5625 47.3169 55.79 47.3271V49.2527C55.1058 49.3761 54.456 49.6446 53.8843 50.0403L52.5239 48.6799C52.6775 48.5118 52.7597 48.2906 52.7532 48.0631C52.7467 47.8355 52.652 47.6194 52.4891 47.4603C52.3262 47.3013 52.1078 47.2119 51.8801 47.2109C51.6525 47.2099 51.4333 47.2975 51.2691 47.4551L50.0585 48.6657C49.8989 48.8296 49.8096 49.0493 49.8097 49.2781C49.8098 49.5069 49.8993 49.7266 50.0591 49.8903C50.2188 50.0541 50.4363 50.1489 50.665 50.1547C50.8937 50.1604 51.1156 50.0765 51.2834 49.9209L52.6437 51.2806C52.2481 51.8522 51.9795 52.502 51.8561 53.1862H49.9303C49.9201 52.9587 49.8219 52.7441 49.6564 52.5877C49.4909 52.4313 49.271 52.3454 49.0433 52.3482C48.8156 52.3509 48.5979 52.4421 48.4362 52.6025C48.2746 52.7628 48.1816 52.9798 48.1769 53.2074V54.9194C48.1816 55.147 48.2746 55.364 48.4362 55.5243C48.5979 55.6847 48.8156 55.7759 49.0433 55.7787C49.271 55.7814 49.4909 55.6955 49.6564 55.5391C49.8219 55.3827 49.9201 55.1681 49.9303 54.9406H51.8559C51.9793 55.6248 52.2479 56.2746 52.6435 56.8463L51.2832 58.2067C51.1152 58.0528 50.8939 57.9703 50.6661 57.9766C50.4384 57.983 50.2221 58.0777 50.0629 58.2408C49.9038 58.4038 49.8143 58.6224 49.8135 58.8502C49.8126 59.078 49.9004 59.2973 50.0584 59.4615L51.2689 60.672C51.433 60.8303 51.6524 60.9184 51.8804 60.9177C52.1084 60.917 52.3272 60.8275 52.4904 60.6683C52.6535 60.509 52.7483 60.2925 52.7546 60.0646C52.7608 59.8367 52.6781 59.6153 52.5239 59.4473L53.8843 58.0876C54.456 58.4831 55.1058 58.7516 55.79 58.8748V60.8005C55.5594 60.8061 55.3403 60.9024 55.1802 61.0684C55.0201 61.2345 54.9319 61.4569 54.9347 61.6876C54.9375 61.9182 55.0311 62.1384 55.1951 62.3006C55.3592 62.4627 55.5805 62.5536 55.8112 62.5537H57.5231C57.7538 62.5536 57.9751 62.4627 58.1392 62.3006C58.3032 62.1384 58.3968 61.9182 58.3996 61.6876C58.4024 61.4569 58.3142 61.2345 58.1541 61.0684C57.994 60.9024 57.7749 60.8061 57.5443 60.8005V58.8748C58.2285 58.7514 58.8783 58.4829 59.45 58.0872L60.8104 59.4473C60.6565 59.6153 60.574 59.8366 60.5804 60.0643C60.5868 60.2921 60.6815 60.5084 60.8445 60.6675C61.0076 60.8267 61.2261 60.9161 61.454 60.917C61.6818 60.9179 61.901 60.83 62.0652 60.6721L63.2758 59.4616C63.4365 59.298 63.5268 59.0779 63.5271 58.8485C63.5275 58.6191 63.4379 58.3987 63.2777 58.2346C63.1175 58.0705 62.8993 57.9757 62.67 57.9706C62.4406 57.9655 62.2184 58.0504 62.051 58.2072L60.6906 56.8468C61.0863 56.2751 61.3549 55.6253 61.4782 54.9411H63.404C63.4142 55.1686 63.5124 55.3833 63.6779 55.5396C63.8434 55.696 64.0633 55.7819 64.291 55.7792C64.5187 55.7764 64.7364 55.6852 64.8981 55.5249C65.0597 55.3645 65.1527 55.1476 65.1574 54.9199V53.2078C65.1574 53.0926 65.1347 52.9785 65.0906 52.8721C65.0465 52.7656 64.9818 52.6689 64.9004 52.5875C64.8189 52.506 64.7222 52.4414 64.6157 52.3973C64.5093 52.3532 64.3952 52.3306 64.28 52.3306Z" fill="white"/>
<path d="M71.0433 39.9113L56.8991 36.0311C56.7472 35.9894 56.5869 35.9896 56.4351 36.0319V36.0311L42.2908 39.9113C42.1054 39.9622 41.9419 40.0725 41.8253 40.2254C41.7087 40.3782 41.6456 40.5651 41.6456 40.7573V55.2769C41.6456 55.4354 41.6665 59.2098 43.479 63.6535C44.5469 66.2723 46.0189 68.5804 47.8541 70.5132C50.1499 72.9317 53.0167 74.7607 56.3746 75.9494C56.4685 75.9827 56.5674 75.9999 56.667 76C56.7665 75.9978 56.8652 75.9807 56.9597 75.9495C60.3176 74.7608 63.1844 72.9319 65.4803 70.5133C67.3155 68.5801 68.7873 66.2721 69.8555 63.6536C71.6676 59.2098 71.6884 55.4355 71.6884 55.277V40.7573C71.6884 40.5651 71.6252 40.3782 71.5087 40.2254C71.3922 40.0725 71.2286 39.9622 71.0433 39.9113ZM46.2155 43.4612L56.667 40.594L67.1184 43.4612V55.9743C67.1184 56.0028 67.0947 58.8663 65.743 62.1472C63.9969 66.3859 60.9437 69.3408 56.667 70.9363C52.3902 69.3408 49.3371 66.3858 47.591 62.1472C46.2393 58.8665 46.2156 56.0028 46.2155 55.9755V43.4612Z" fill="white"/>
<rect x="17.1667" y="16.5" width="79" height="79" rx="19.5" stroke="url(#paint2_radial_606_1301)"/>
<defs>
<linearGradient id="paint0_linear_606_1301" x1="96.6667" y1="96" x2="16.6667" y2="16" gradientUnits="userSpaceOnUse">
<stop stop-color="#6B970D"/>
<stop offset="1" stop-color="#CCFF60"/>
</linearGradient>
<radialGradient id="paint1_angular_606_1301" cx="0" cy="0" r="1" gradientUnits="userSpaceOnUse" gradientTransform="translate(56.6667 56) rotate(90) scale(40)">
<stop stop-color="white"/>
<stop offset="1" stop-color="white" stop-opacity="0"/>
</radialGradient>
<radialGradient id="paint2_radial_606_1301" cx="0" cy="0" r="1" gradientUnits="userSpaceOnUse" gradientTransform="translate(56.6667 96) rotate(-90) scale(80 74.8432)">
<stop stop-color="white"/>
<stop offset="1" stop-color="#7E430C" stop-opacity="0"/>
</radialGradient>
</defs>
</svg>
