<svg width="113" height="112" viewBox="0 0 113 112" fill="none" xmlns="http://www.w3.org/2000/svg">
<rect opacity="0.3" x="1.33325" y="1" width="110" height="110" rx="19" stroke="#FB68EC" stroke-width="2"/>
<mask id="mask0_606_1370" style="mask-type:alpha" maskUnits="userSpaceOnUse" x="0" y="0" width="113" height="112">
<rect x="1.33325" y="1" width="110" height="110" rx="19" stroke="black" stroke-width="2"/>
</mask>
<g mask="url(#mask0_606_1370)">
<path d="M5.42156 106.912C-3.51531 97.9748 -9.94229 86.843 -13.2134 74.635C-16.4845 62.427 -16.4845 49.573 -13.2134 37.365C-9.94228 25.157 -3.51529 14.0252 5.42159 5.08829C14.3585 -3.84858 25.4903 -10.2756 37.6983 -13.5467L56.3333 56L5.42156 106.912Z" fill="#FB68EC"/>
</g>
<rect x="16.8333" y="16.5" width="79" height="79" rx="19.5" fill="url(#paint0_linear_606_1370)"/>
<rect x="16.8333" y="16.5" width="79" height="79" rx="19.5" fill="url(#paint1_angular_606_1370)" fill-opacity="0.3"/>
<g clip-path="url(#clip0_606_1370)">
<path d="M36.3333 59.8933V70.782C36.3333 71.262 36.7228 71.6516 37.2028 71.6516H45.8985C46.3785 71.6516 46.7681 71.262 46.7681 70.782C46.7681 66.4672 51.0585 62.9559 56.3333 62.9559C61.6081 62.9559 65.8985 66.4672 65.8985 70.782C65.8985 71.262 66.2881 71.6516 66.7681 71.6516H75.4637C75.9437 71.6516 76.3333 71.262 76.3333 70.782V60.1299L56.3281 54.2952L36.3333 59.8933Z" fill="white"/>
<path d="M75.6915 49.0744L60.688 44.9822L60.6811 42.9527C60.6811 42.6257 60.495 42.3266 60.2011 42.1788L56.7228 40.4397C56.4776 40.318 56.1889 40.318 55.9454 40.4397L52.4671 42.1788C52.1714 42.3266 51.9854 42.6275 51.9854 42.9562V44.9805L36.975 49.0744C36.5958 49.1787 36.3333 49.5213 36.3333 49.9126V58.0882L39.8115 57.1143V55.13C39.8115 53.6917 40.9819 52.5213 42.4202 52.5213C43.8585 52.5213 45.0289 53.6917 45.0289 55.13V55.6534L46.768 55.1665V51.6517C46.768 50.2134 47.9384 49.043 49.3767 49.043C50.815 49.043 51.9854 50.2134 51.9854 51.6517V53.7056L53.7245 53.2187V49.9126C53.7245 48.4743 54.8949 47.3039 56.3332 47.3039C57.7715 47.3039 58.9419 48.4743 58.9419 49.9126V53.2448L60.681 53.7526V51.6517C60.681 50.2134 61.8514 49.043 63.2897 49.043C64.728 49.043 65.8984 50.2134 65.8984 51.6517V55.2743L67.6376 55.7821V55.13C67.6376 53.6917 68.808 52.5213 70.2463 52.5213C71.6846 52.5213 72.855 53.6917 72.855 55.13V57.3039L76.3333 58.3178V49.9126C76.3333 49.5196 76.0706 49.1769 75.6915 49.0744Z" fill="white"/>
</g>
<rect x="16.8333" y="16.5" width="79" height="79" rx="19.5" stroke="url(#paint2_radial_606_1370)"/>
<defs>
<linearGradient id="paint0_linear_606_1370" x1="96.3333" y1="96" x2="16.3333" y2="16" gradientUnits="userSpaceOnUse">
<stop stop-color="#FB68EC"/>
<stop offset="1" stop-color="#FFA6F6"/>
</linearGradient>
<radialGradient id="paint1_angular_606_1370" cx="0" cy="0" r="1" gradientUnits="userSpaceOnUse" gradientTransform="translate(56.3333 56) rotate(90) scale(40)">
<stop stop-color="white"/>
<stop offset="1" stop-color="white" stop-opacity="0"/>
</radialGradient>
<radialGradient id="paint2_radial_606_1370" cx="0" cy="0" r="1" gradientUnits="userSpaceOnUse" gradientTransform="translate(56.3332 96) rotate(-90) scale(80 74.8432)">
<stop stop-color="white"/>
<stop offset="1" stop-color="#7E430C" stop-opacity="0"/>
</radialGradient>
<clipPath id="clip0_606_1370">
<rect width="40" height="40" fill="white" transform="translate(36.3333 36)"/>
</clipPath>
</defs>
</svg>
