<svg width="113" height="112" viewBox="0 0 113 112" fill="none" xmlns="http://www.w3.org/2000/svg">
<rect opacity="0.3" x="1.33325" y="1" width="110" height="110" rx="19" stroke="#3598F2" stroke-width="2"/>
<mask id="mask0_606_1317" style="mask-type:alpha" maskUnits="userSpaceOnUse" x="0" y="0" width="113" height="112">
<rect x="1.33325" y="1" width="110" height="110" rx="19" stroke="black" stroke-width="2"/>
</mask>
<g mask="url(#mask0_606_1317)">
<path d="M-11.3246 31.3745C-7.56922 21.0567 -1.50377 11.7344 6.40782 4.1208C14.3194 -3.49283 23.8675 -9.19614 34.3218 -12.5529C44.7762 -15.9096 55.8597 -16.8309 66.7248 -15.2462C77.5898 -13.6615 87.9485 -9.61277 97.0085 -3.40978L56.3333 56L-11.3246 31.3745Z" fill="#3598F2"/>
</g>
<rect x="16.8333" y="16.5" width="79" height="79" rx="19.5" fill="url(#paint0_linear_606_1317)"/>
<rect x="16.8333" y="16.5" width="79" height="79" rx="19.5" fill="url(#paint1_angular_606_1317)" fill-opacity="0.3"/>
<path d="M61.0208 57.7155L64.8334 43.4864C65.2236 42.03 64.3562 40.5277 62.8999 40.1375L47.8073 36.0935C46.3509 35.7032 44.8487 36.5707 44.4584 38.027L43.0757 43.1875H55.9426C58.7427 43.1875 61.0208 45.4655 61.0208 48.2656V57.7155Z" fill="white"/>
<path d="M74.9182 64.7951L72.2539 57.4751L61.0208 70.8623V72.7632L73.284 68.2998C74.7008 67.7841 75.4339 66.2119 74.9182 64.7951Z" fill="white"/>
<path d="M61.0208 67.2161L72.1796 53.9176C73.1487 52.7626 72.9976 51.0345 71.8426 50.0654L66.6618 45.7183L61.0208 66.7712V67.2161Z" fill="white"/>
<path d="M55.9426 45.5312H40.3176C38.8099 45.5312 37.5833 46.7579 37.5833 48.2656V73.2656C37.5833 74.7734 38.8099 76 40.3176 76H55.9426C57.4504 76 58.677 74.7734 58.677 73.2656V48.2656C58.677 46.7579 57.4504 45.5312 55.9426 45.5312ZM40.7083 49.8281C40.7083 49.1809 41.2329 48.6562 41.8801 48.6562H43.4426C44.0898 48.6562 44.6145 49.1809 44.6145 49.8281C44.6145 50.4753 44.0898 51 43.4426 51H41.8801C41.2329 51 40.7083 50.4753 40.7083 49.8281ZM54.3801 72.875H52.8176C52.1704 72.875 51.6458 72.3503 51.6458 71.7031C51.6458 71.0559 52.1704 70.5312 52.8176 70.5312H54.3801C55.0273 70.5312 55.552 71.0559 55.552 71.7031C55.552 72.3503 55.0273 72.875 54.3801 72.875Z" fill="white"/>
<rect x="16.8333" y="16.5" width="79" height="79" rx="19.5" stroke="url(#paint2_radial_606_1317)"/>
<defs>
<linearGradient id="paint0_linear_606_1317" x1="96.3333" y1="96" x2="16.3333" y2="16" gradientUnits="userSpaceOnUse">
<stop stop-color="#1444BE"/>
<stop offset="1" stop-color="#3598F2"/>
</linearGradient>
<radialGradient id="paint1_angular_606_1317" cx="0" cy="0" r="1" gradientUnits="userSpaceOnUse" gradientTransform="translate(56.3333 56) rotate(90) scale(40)">
<stop stop-color="white"/>
<stop offset="1" stop-color="white" stop-opacity="0"/>
</radialGradient>
<radialGradient id="paint2_radial_606_1317" cx="0" cy="0" r="1" gradientUnits="userSpaceOnUse" gradientTransform="translate(56.3332 96) rotate(-90) scale(80 74.8432)">
<stop stop-color="white"/>
<stop offset="1" stop-color="#7E430C" stop-opacity="0"/>
</radialGradient>
</defs>
</svg>
