<svg width="1672" height="978" viewBox="0 0 1672 978" fill="none" xmlns="http://www.w3.org/2000/svg">
<g filter="url(#filter0_d_810_9885)">
<path d="M879.074 961.264C879.413 960.435 880.587 960.435 880.926 961.264L881.933 963.728C881.967 963.812 882.013 963.89 882.068 963.962L883.698 966.067C884.247 966.774 883.66 967.791 882.773 967.67L880.135 967.31C880.045 967.298 879.955 967.298 879.865 967.31L877.227 967.67C876.34 967.791 875.753 966.774 876.302 966.067L877.932 963.962C877.987 963.89 878.033 963.812 878.067 963.728L879.074 961.264Z" fill="url(#paint0_linear_810_9885)"/>
</g>
<g filter="url(#filter1_d_810_9885)">
<path d="M1165.07 86.2638C1165.41 85.4351 1166.59 85.4351 1166.93 86.2638L1167.93 88.7279C1167.97 88.8117 1168.01 88.8903 1168.07 88.9619L1169.7 91.0665C1170.25 91.7743 1169.66 92.7906 1168.77 92.6697L1166.14 92.3102C1166.05 92.298 1165.95 92.298 1165.86 92.3102L1163.23 92.6697C1162.34 92.7906 1161.75 91.7743 1162.3 91.0665L1163.93 88.9619C1163.99 88.8903 1164.03 88.8117 1164.07 88.7279L1165.07 86.2638Z" fill="url(#paint1_linear_810_9885)"/>
</g>
<g filter="url(#filter2_d_810_9885)">
<path d="M1599.07 199.264C1599.41 198.435 1600.59 198.435 1600.93 199.264L1601.93 201.728C1601.97 201.812 1602.01 201.89 1602.07 201.962L1603.7 204.067C1604.25 204.774 1603.66 205.791 1602.77 205.67L1600.14 205.31C1600.05 205.298 1599.95 205.298 1599.86 205.31L1597.23 205.67C1596.34 205.791 1595.75 204.774 1596.3 204.067L1597.93 201.962C1597.99 201.89 1598.03 201.812 1598.07 201.728L1599.07 199.264Z" fill="url(#paint2_linear_810_9885)"/>
</g>
<g filter="url(#filter3_d_810_9885)">
<path d="M72.4523 4.7741C73.2067 4.29204 74.1658 4.96825 73.9653 5.8408L73.3689 8.43534C73.3486 8.52348 73.3404 8.61397 73.3445 8.70432L73.4641 11.3638C73.5044 12.2582 72.4392 12.7508 71.7838 12.1408L69.8351 10.327C69.7689 10.2654 69.6947 10.213 69.6144 10.1714L67.2513 8.94528C66.4566 8.53294 66.5627 7.3642 67.4186 7.10163L69.9637 6.32086C70.0502 6.29434 70.1327 6.25621 70.2089 6.20751L72.4523 4.7741Z" fill="url(#paint3_linear_810_9885)"/>
</g>
<g filter="url(#filter4_d_810_9885)">
<path d="M1666.45 883.774C1667.21 883.292 1668.17 883.968 1667.97 884.841L1667.37 887.435C1667.35 887.523 1667.34 887.614 1667.35 887.704L1667.47 890.364C1667.51 891.258 1666.44 891.751 1665.78 891.141L1663.84 889.327C1663.77 889.265 1663.7 889.213 1663.62 889.171L1661.25 887.945C1660.46 887.533 1660.56 886.364 1661.42 886.102L1663.96 885.321C1664.05 885.294 1664.13 885.256 1664.21 885.208L1666.45 883.774Z" fill="url(#paint4_linear_810_9885)"/>
</g>
<g filter="url(#filter5_d_810_9885)">
<path d="M10.4528 804.774C11.2072 804.292 12.1663 804.968 11.9658 805.841L11.3694 808.435C11.3491 808.523 11.3409 808.614 11.3449 808.704L11.4646 811.364C11.5049 812.258 10.4397 812.751 9.78434 812.141L7.83561 810.327C7.7694 810.265 7.69514 810.213 7.61486 810.171L5.25182 808.945C4.45712 808.533 4.56316 807.364 5.4191 807.102L7.96424 806.321C8.0507 806.294 8.13317 806.256 8.20939 806.208L10.4528 804.774Z" fill="url(#paint5_linear_810_9885)"/>
</g>
<g filter="url(#filter6_d_810_9885)">
<path d="M783.077 187.535C783.971 187.585 784.353 188.695 783.68 189.285L781.679 191.041C781.611 191.1 781.551 191.169 781.501 191.245L780.043 193.472C779.552 194.221 778.4 193.997 778.226 193.119L777.706 190.508C777.688 190.419 777.659 190.333 777.618 190.253L776.418 187.876C776.015 187.077 776.785 186.191 777.633 186.479L780.154 187.334C780.239 187.363 780.328 187.38 780.419 187.385L783.077 187.535Z" fill="url(#paint6_linear_810_9885)"/>
</g>
<g filter="url(#filter7_d_810_9885)">
<path d="M143.513 359.535C144.407 359.585 144.79 360.695 144.116 361.285L142.115 363.041C142.047 363.1 141.988 363.169 141.938 363.245L140.479 365.472C139.989 366.221 138.837 365.997 138.662 365.119L138.142 362.508C138.125 362.419 138.095 362.333 138.054 362.253L136.855 359.876C136.452 359.077 137.221 358.191 138.069 358.479L140.59 359.334C140.676 359.363 140.765 359.38 140.855 359.385L143.513 359.535Z" fill="url(#paint7_linear_810_9885)"/>
</g>
<g filter="url(#filter8_d_810_9885)">
<path d="M682.077 700.535C682.971 700.585 683.353 701.695 682.68 702.285L680.679 704.041C680.611 704.1 680.551 704.169 680.501 704.245L679.043 706.472C678.552 707.221 677.4 706.997 677.226 706.119L676.706 703.508C676.688 703.419 676.659 703.333 676.618 703.253L675.418 700.876C675.015 700.077 675.785 699.191 676.633 699.479L679.154 700.334C679.239 700.363 679.328 700.38 679.419 700.385L682.077 700.535Z" fill="url(#paint8_linear_810_9885)"/>
</g>
<g filter="url(#filter9_d_810_9885)">
<path d="M488.077 485.535C488.971 485.585 489.353 486.695 488.68 487.285L486.679 489.041C486.611 489.1 486.551 489.169 486.501 489.245L485.043 491.472C484.552 492.221 483.4 491.997 483.226 491.119L482.706 488.508C482.688 488.419 482.659 488.333 482.618 488.253L481.418 485.876C481.015 485.077 481.785 484.191 482.633 484.479L485.154 485.334C485.239 485.363 485.328 485.38 485.419 485.385L488.077 485.535Z" fill="url(#paint9_linear_810_9885)"/>
</g>
<g filter="url(#filter10_d_810_9885)">
<path d="M1246.08 477.535C1246.97 477.585 1247.35 478.695 1246.68 479.285L1244.68 481.041C1244.61 481.1 1244.55 481.169 1244.5 481.245L1243.04 483.472C1242.55 484.221 1241.4 483.997 1241.23 483.119L1240.71 480.508C1240.69 480.419 1240.66 480.333 1240.62 480.253L1239.42 477.876C1239.02 477.077 1239.78 476.191 1240.63 476.479L1243.15 477.334C1243.24 477.363 1243.33 477.38 1243.42 477.385L1246.08 477.535Z" fill="url(#paint10_linear_810_9885)"/>
</g>
<defs>
<filter id="filter0_d_810_9885" x="872.089" y="960.642" width="15.8213" height="17.0374" filterUnits="userSpaceOnUse" color-interpolation-filters="sRGB">
<feFlood flood-opacity="0" result="BackgroundImageFix"/>
<feColorMatrix in="SourceAlpha" type="matrix" values="0 0 0 0 0 0 0 0 0 0 0 0 0 0 0 0 0 0 127 0" result="hardAlpha"/>
<feOffset dy="6"/>
<feGaussianBlur stdDeviation="2"/>
<feComposite in2="hardAlpha" operator="out"/>
<feColorMatrix type="matrix" values="0 0 0 0 0 0 0 0 0 0 0 0 0 0 0 0 0 0 0.25 0"/>
<feBlend mode="normal" in2="BackgroundImageFix" result="effect1_dropShadow_810_9885"/>
<feBlend mode="normal" in="SourceGraphic" in2="effect1_dropShadow_810_9885" result="shape"/>
</filter>
<filter id="filter1_d_810_9885" x="1158.09" y="85.6422" width="15.8213" height="17.0374" filterUnits="userSpaceOnUse" color-interpolation-filters="sRGB">
<feFlood flood-opacity="0" result="BackgroundImageFix"/>
<feColorMatrix in="SourceAlpha" type="matrix" values="0 0 0 0 0 0 0 0 0 0 0 0 0 0 0 0 0 0 127 0" result="hardAlpha"/>
<feOffset dy="6"/>
<feGaussianBlur stdDeviation="2"/>
<feComposite in2="hardAlpha" operator="out"/>
<feColorMatrix type="matrix" values="0 0 0 0 0 0 0 0 0 0 0 0 0 0 0 0 0 0 0.25 0"/>
<feBlend mode="normal" in2="BackgroundImageFix" result="effect1_dropShadow_810_9885"/>
<feBlend mode="normal" in="SourceGraphic" in2="effect1_dropShadow_810_9885" result="shape"/>
</filter>
<filter id="filter2_d_810_9885" x="1592.09" y="198.642" width="15.8223" height="17.0374" filterUnits="userSpaceOnUse" color-interpolation-filters="sRGB">
<feFlood flood-opacity="0" result="BackgroundImageFix"/>
<feColorMatrix in="SourceAlpha" type="matrix" values="0 0 0 0 0 0 0 0 0 0 0 0 0 0 0 0 0 0 127 0" result="hardAlpha"/>
<feOffset dy="6"/>
<feGaussianBlur stdDeviation="2"/>
<feComposite in2="hardAlpha" operator="out"/>
<feColorMatrix type="matrix" values="0 0 0 0 0 0 0 0 0 0 0 0 0 0 0 0 0 0 0.25 0"/>
<feBlend mode="normal" in2="BackgroundImageFix" result="effect1_dropShadow_810_9885"/>
<feBlend mode="normal" in="SourceGraphic" in2="effect1_dropShadow_810_9885" result="shape"/>
</filter>
<filter id="filter3_d_810_9885" x="62.7119" y="4.61359" width="15.2803" height="17.7975" filterUnits="userSpaceOnUse" color-interpolation-filters="sRGB">
<feFlood flood-opacity="0" result="BackgroundImageFix"/>
<feColorMatrix in="SourceAlpha" type="matrix" values="0 0 0 0 0 0 0 0 0 0 0 0 0 0 0 0 0 0 127 0" result="hardAlpha"/>
<feOffset dy="6"/>
<feGaussianBlur stdDeviation="2"/>
<feComposite in2="hardAlpha" operator="out"/>
<feColorMatrix type="matrix" values="0 0 0 0 0 0 0 0 0 0 0 0 0 0 0 0 0 0 0.25 0"/>
<feBlend mode="normal" in2="BackgroundImageFix" result="effect1_dropShadow_810_9885"/>
<feBlend mode="normal" in="SourceGraphic" in2="effect1_dropShadow_810_9885" result="shape"/>
</filter>
<filter id="filter4_d_810_9885" x="1656.71" y="883.614" width="15.2803" height="17.7975" filterUnits="userSpaceOnUse" color-interpolation-filters="sRGB">
<feFlood flood-opacity="0" result="BackgroundImageFix"/>
<feColorMatrix in="SourceAlpha" type="matrix" values="0 0 0 0 0 0 0 0 0 0 0 0 0 0 0 0 0 0 127 0" result="hardAlpha"/>
<feOffset dy="6"/>
<feGaussianBlur stdDeviation="2"/>
<feComposite in2="hardAlpha" operator="out"/>
<feColorMatrix type="matrix" values="0 0 0 0 0 0 0 0 0 0 0 0 0 0 0 0 0 0 0.25 0"/>
<feBlend mode="normal" in2="BackgroundImageFix" result="effect1_dropShadow_810_9885"/>
<feBlend mode="normal" in="SourceGraphic" in2="effect1_dropShadow_810_9885" result="shape"/>
</filter>
<filter id="filter5_d_810_9885" x="0.712402" y="804.614" width="15.2803" height="17.7975" filterUnits="userSpaceOnUse" color-interpolation-filters="sRGB">
<feFlood flood-opacity="0" result="BackgroundImageFix"/>
<feColorMatrix in="SourceAlpha" type="matrix" values="0 0 0 0 0 0 0 0 0 0 0 0 0 0 0 0 0 0 127 0" result="hardAlpha"/>
<feOffset dy="6"/>
<feGaussianBlur stdDeviation="2"/>
<feComposite in2="hardAlpha" operator="out"/>
<feColorMatrix type="matrix" values="0 0 0 0 0 0 0 0 0 0 0 0 0 0 0 0 0 0 0.25 0"/>
<feBlend mode="normal" in2="BackgroundImageFix" result="effect1_dropShadow_810_9885"/>
<feBlend mode="normal" in="SourceGraphic" in2="effect1_dropShadow_810_9885" result="shape"/>
</filter>
<filter id="filter6_d_810_9885" x="772.308" y="186.423" width="15.7139" height="17.5014" filterUnits="userSpaceOnUse" color-interpolation-filters="sRGB">
<feFlood flood-opacity="0" result="BackgroundImageFix"/>
<feColorMatrix in="SourceAlpha" type="matrix" values="0 0 0 0 0 0 0 0 0 0 0 0 0 0 0 0 0 0 127 0" result="hardAlpha"/>
<feOffset dy="6"/>
<feGaussianBlur stdDeviation="2"/>
<feComposite in2="hardAlpha" operator="out"/>
<feColorMatrix type="matrix" values="0 0 0 0 0 0 0 0 0 0 0 0 0 0 0 0 0 0 0.25 0"/>
<feBlend mode="normal" in2="BackgroundImageFix" result="effect1_dropShadow_810_9885"/>
<feBlend mode="normal" in="SourceGraphic" in2="effect1_dropShadow_810_9885" result="shape"/>
</filter>
<filter id="filter7_d_810_9885" x="132.745" y="358.423" width="15.7139" height="17.5015" filterUnits="userSpaceOnUse" color-interpolation-filters="sRGB">
<feFlood flood-opacity="0" result="BackgroundImageFix"/>
<feColorMatrix in="SourceAlpha" type="matrix" values="0 0 0 0 0 0 0 0 0 0 0 0 0 0 0 0 0 0 127 0" result="hardAlpha"/>
<feOffset dy="6"/>
<feGaussianBlur stdDeviation="2"/>
<feComposite in2="hardAlpha" operator="out"/>
<feColorMatrix type="matrix" values="0 0 0 0 0 0 0 0 0 0 0 0 0 0 0 0 0 0 0.25 0"/>
<feBlend mode="normal" in2="BackgroundImageFix" result="effect1_dropShadow_810_9885"/>
<feBlend mode="normal" in="SourceGraphic" in2="effect1_dropShadow_810_9885" result="shape"/>
</filter>
<filter id="filter8_d_810_9885" x="671.308" y="699.423" width="15.7139" height="17.5015" filterUnits="userSpaceOnUse" color-interpolation-filters="sRGB">
<feFlood flood-opacity="0" result="BackgroundImageFix"/>
<feColorMatrix in="SourceAlpha" type="matrix" values="0 0 0 0 0 0 0 0 0 0 0 0 0 0 0 0 0 0 127 0" result="hardAlpha"/>
<feOffset dy="6"/>
<feGaussianBlur stdDeviation="2"/>
<feComposite in2="hardAlpha" operator="out"/>
<feColorMatrix type="matrix" values="0 0 0 0 0 0 0 0 0 0 0 0 0 0 0 0 0 0 0.25 0"/>
<feBlend mode="normal" in2="BackgroundImageFix" result="effect1_dropShadow_810_9885"/>
<feBlend mode="normal" in="SourceGraphic" in2="effect1_dropShadow_810_9885" result="shape"/>
</filter>
<filter id="filter9_d_810_9885" x="477.308" y="484.423" width="15.7139" height="17.5015" filterUnits="userSpaceOnUse" color-interpolation-filters="sRGB">
<feFlood flood-opacity="0" result="BackgroundImageFix"/>
<feColorMatrix in="SourceAlpha" type="matrix" values="0 0 0 0 0 0 0 0 0 0 0 0 0 0 0 0 0 0 127 0" result="hardAlpha"/>
<feOffset dy="6"/>
<feGaussianBlur stdDeviation="2"/>
<feComposite in2="hardAlpha" operator="out"/>
<feColorMatrix type="matrix" values="0 0 0 0 0 0 0 0 0 0 0 0 0 0 0 0 0 0 0.25 0"/>
<feBlend mode="normal" in2="BackgroundImageFix" result="effect1_dropShadow_810_9885"/>
<feBlend mode="normal" in="SourceGraphic" in2="effect1_dropShadow_810_9885" result="shape"/>
</filter>
<filter id="filter10_d_810_9885" x="1235.31" y="476.423" width="15.7148" height="17.5015" filterUnits="userSpaceOnUse" color-interpolation-filters="sRGB">
<feFlood flood-opacity="0" result="BackgroundImageFix"/>
<feColorMatrix in="SourceAlpha" type="matrix" values="0 0 0 0 0 0 0 0 0 0 0 0 0 0 0 0 0 0 127 0" result="hardAlpha"/>
<feOffset dy="6"/>
<feGaussianBlur stdDeviation="2"/>
<feComposite in2="hardAlpha" operator="out"/>
<feColorMatrix type="matrix" values="0 0 0 0 0 0 0 0 0 0 0 0 0 0 0 0 0 0 0.25 0"/>
<feBlend mode="normal" in2="BackgroundImageFix" result="effect1_dropShadow_810_9885"/>
<feBlend mode="normal" in="SourceGraphic" in2="effect1_dropShadow_810_9885" result="shape"/>
</filter>
<linearGradient id="paint0_linear_810_9885" x1="877.75" y1="966.5" x2="881.5" y2="963.5" gradientUnits="userSpaceOnUse">
<stop stop-color="#512895"/>
<stop offset="1" stop-color="#641089"/>
</linearGradient>
<linearGradient id="paint1_linear_810_9885" x1="1163.75" y1="91.5" x2="1167.5" y2="88.5" gradientUnits="userSpaceOnUse">
<stop stop-color="#512895"/>
<stop offset="1" stop-color="#641089"/>
</linearGradient>
<linearGradient id="paint2_linear_810_9885" x1="1597.75" y1="204.5" x2="1601.5" y2="201.5" gradientUnits="userSpaceOnUse">
<stop stop-color="#512895"/>
<stop offset="1" stop-color="#641089"/>
</linearGradient>
<linearGradient id="paint3_linear_810_9885" x1="68.3527" y1="8.29055" x2="73.1462" y2="7.99944" gradientUnits="userSpaceOnUse">
<stop stop-color="#512895"/>
<stop offset="1" stop-color="#641089"/>
</linearGradient>
<linearGradient id="paint4_linear_810_9885" x1="1662.35" y1="887.291" x2="1667.15" y2="886.999" gradientUnits="userSpaceOnUse">
<stop stop-color="#512895"/>
<stop offset="1" stop-color="#641089"/>
</linearGradient>
<linearGradient id="paint5_linear_810_9885" x1="6.35316" y1="808.291" x2="11.1467" y2="807.999" gradientUnits="userSpaceOnUse">
<stop stop-color="#512895"/>
<stop offset="1" stop-color="#641089"/>
</linearGradient>
<linearGradient id="paint6_linear_810_9885" x1="777.695" y1="187.989" x2="781.753" y2="190.557" gradientUnits="userSpaceOnUse">
<stop stop-color="#512895"/>
<stop offset="1" stop-color="#641089"/>
</linearGradient>
<linearGradient id="paint7_linear_810_9885" x1="138.131" y1="359.989" x2="142.189" y2="362.557" gradientUnits="userSpaceOnUse">
<stop stop-color="#512895"/>
<stop offset="1" stop-color="#641089"/>
</linearGradient>
<linearGradient id="paint8_linear_810_9885" x1="676.695" y1="700.989" x2="680.753" y2="703.557" gradientUnits="userSpaceOnUse">
<stop stop-color="#512895"/>
<stop offset="1" stop-color="#641089"/>
</linearGradient>
<linearGradient id="paint9_linear_810_9885" x1="482.695" y1="485.989" x2="486.753" y2="488.557" gradientUnits="userSpaceOnUse">
<stop stop-color="#512895"/>
<stop offset="1" stop-color="#641089"/>
</linearGradient>
<linearGradient id="paint10_linear_810_9885" x1="1240.69" y1="477.989" x2="1244.75" y2="480.557" gradientUnits="userSpaceOnUse">
<stop stop-color="#512895"/>
<stop offset="1" stop-color="#641089"/>
</linearGradient>
</defs>
</svg>
