<svg width="297" height="874" viewBox="0 0 297 874" fill="none" xmlns="http://www.w3.org/2000/svg">
<g filter="url(#filter0_d_705_5757)">
<path d="M250.074 692.264C250.413 691.435 251.587 691.435 251.926 692.264L252.933 694.728C252.967 694.812 253.013 694.89 253.068 694.962L254.698 697.067C255.247 697.774 254.66 698.791 253.773 698.67L251.135 698.31C251.045 698.298 250.955 698.298 250.865 698.31L248.227 698.67C247.34 698.791 246.753 697.774 247.302 697.067L248.932 694.962C248.987 694.89 249.033 694.812 249.067 694.728L250.074 692.264Z" fill="url(#paint0_linear_705_5757)"/>
</g>
<g filter="url(#filter1_d_705_5757)">
<path d="M288.074 22.2638C288.413 21.4351 289.587 21.4351 289.926 22.2638L290.933 24.7279C290.967 24.8117 291.013 24.8903 291.068 24.9619L292.698 27.0665C293.247 27.7743 292.66 28.7906 291.773 28.6697L289.135 28.3102C289.045 28.298 288.955 28.298 288.865 28.3102L286.227 28.6697C285.34 28.7906 284.753 27.7743 285.302 27.0665L286.932 24.9619C286.987 24.8903 287.033 24.8117 287.067 24.7279L288.074 22.2638Z" fill="url(#paint1_linear_705_5757)"/>
</g>
<g filter="url(#filter2_d_705_5757)">
<path d="M195.074 218.264C195.413 217.435 196.587 217.435 196.926 218.264L197.933 220.728C197.967 220.812 198.013 220.89 198.068 220.962L199.698 223.067C200.247 223.774 199.66 224.791 198.773 224.67L196.135 224.31C196.045 224.298 195.955 224.298 195.865 224.31L193.227 224.67C192.34 224.791 191.753 223.774 192.302 223.067L193.932 220.962C193.987 220.89 194.033 220.812 194.067 220.728L195.074 218.264Z" fill="url(#paint2_linear_705_5757)"/>
</g>
<g filter="url(#filter3_d_705_5757)">
<path d="M72.452 4.7741C73.2065 4.29204 74.1656 4.96825 73.965 5.8408L73.3686 8.43534C73.3484 8.52348 73.3401 8.61397 73.3442 8.70432L73.4639 11.3638C73.5042 12.2582 72.439 12.7508 71.7836 12.1408L69.8349 10.327C69.7687 10.2654 69.6944 10.213 69.6141 10.1714L67.2511 8.94528C66.4564 8.53294 66.5624 7.3642 67.4184 7.10163L69.9635 6.32086C70.05 6.29434 70.1324 6.25621 70.2087 6.20751L72.452 4.7741Z" fill="url(#paint3_linear_705_5757)"/>
</g>
<g filter="url(#filter4_d_705_5757)">
<path d="M207.453 855.774C208.207 855.292 209.166 855.968 208.966 856.841L208.369 859.435C208.349 859.523 208.341 859.614 208.345 859.704L208.464 862.364C208.505 863.258 207.439 863.751 206.784 863.141L204.835 861.327C204.769 861.265 204.695 861.213 204.615 861.171L202.252 859.945C201.457 859.533 201.563 858.364 202.419 858.102L204.964 857.321C205.05 857.294 205.133 857.256 205.209 857.208L207.453 855.774Z" fill="url(#paint4_linear_705_5757)"/>
</g>
<g filter="url(#filter5_d_705_5757)">
<path d="M10.4525 804.774C11.207 804.292 12.1661 804.968 11.9655 805.841L11.3691 808.435C11.3488 808.523 11.3406 808.614 11.3447 808.704L11.4644 811.364C11.5046 812.258 10.4395 812.751 9.78409 812.141L7.83536 810.327C7.76916 810.265 7.6949 810.213 7.61462 810.171L5.25157 808.945C4.45687 808.533 4.56292 807.364 5.41885 807.102L7.96399 806.321C8.05046 806.294 8.13293 806.256 8.20915 806.208L10.4525 804.774Z" fill="url(#paint5_linear_705_5757)"/>
</g>
<g filter="url(#filter6_d_705_5757)">
<path d="M31.0767 180.535C31.9706 180.585 32.353 181.695 31.68 182.285L29.6786 184.041C29.6106 184.1 29.551 184.169 29.5014 184.245L28.0429 186.472C27.5524 187.221 26.4003 186.997 26.2256 186.119L25.7059 183.508C25.6883 183.419 25.6587 183.333 25.6179 183.253L24.4185 180.876C24.0151 180.077 24.7848 179.191 25.6326 179.479L28.1536 180.334C28.2392 180.363 28.3284 180.38 28.4187 180.385L31.0767 180.535Z" fill="url(#paint6_linear_705_5757)"/>
</g>
<g filter="url(#filter7_d_705_5757)">
<path d="M42.0767 426.535C42.9706 426.585 43.353 427.695 42.68 428.285L40.6786 430.041C40.6106 430.1 40.551 430.169 40.5014 430.245L39.0429 432.472C38.5524 433.221 37.4003 432.997 37.2256 432.119L36.7059 429.508C36.6883 429.419 36.6587 429.333 36.6179 429.253L35.4185 426.876C35.0151 426.077 35.7848 425.191 36.6326 425.479L39.1536 426.334C39.2392 426.363 39.3284 426.38 39.4187 426.385L42.0767 426.535Z" fill="url(#paint7_linear_705_5757)"/>
</g>
<g filter="url(#filter8_d_705_5757)">
<path d="M72.0767 640.535C72.9706 640.585 73.353 641.695 72.68 642.285L70.6786 644.041C70.6106 644.1 70.551 644.169 70.5014 644.245L69.0429 646.472C68.5524 647.221 67.4003 646.997 67.2256 646.119L66.7059 643.508C66.6883 643.419 66.6587 643.333 66.6179 643.253L65.4185 640.876C65.0151 640.077 65.7848 639.191 66.6326 639.479L69.1536 640.334C69.2392 640.363 69.3284 640.38 69.4187 640.385L72.0767 640.535Z" fill="url(#paint8_linear_705_5757)"/>
</g>
<g filter="url(#filter9_d_705_5757)">
<path d="M154.077 497.535C154.971 497.585 155.353 498.695 154.68 499.285L152.679 501.041C152.611 501.1 152.551 501.169 152.501 501.245L151.043 503.472C150.552 504.221 149.4 503.997 149.226 503.119L148.706 500.508C148.688 500.419 148.659 500.333 148.618 500.253L147.418 497.876C147.015 497.077 147.785 496.191 148.633 496.479L151.154 497.334C151.239 497.363 151.328 497.38 151.419 497.385L154.077 497.535Z" fill="url(#paint9_linear_705_5757)"/>
</g>
<g filter="url(#filter10_d_705_5757)">
<path d="M280.077 340.535C280.971 340.585 281.353 341.695 280.68 342.285L278.679 344.041C278.611 344.1 278.551 344.169 278.501 344.245L277.043 346.472C276.552 347.221 275.4 346.997 275.226 346.119L274.706 343.508C274.688 343.419 274.659 343.333 274.618 343.253L273.418 340.876C273.015 340.077 273.785 339.191 274.633 339.479L277.154 340.334C277.239 340.363 277.328 340.38 277.419 340.385L280.077 340.535Z" fill="url(#paint10_linear_705_5757)"/>
</g>
<defs>
<filter id="filter0_d_705_5757" x="243.089" y="691.642" width="15.8218" height="17.0374" filterUnits="userSpaceOnUse" color-interpolation-filters="sRGB">
<feFlood flood-opacity="0" result="BackgroundImageFix"/>
<feColorMatrix in="SourceAlpha" type="matrix" values="0 0 0 0 0 0 0 0 0 0 0 0 0 0 0 0 0 0 127 0" result="hardAlpha"/>
<feOffset dy="6"/>
<feGaussianBlur stdDeviation="2"/>
<feComposite in2="hardAlpha" operator="out"/>
<feColorMatrix type="matrix" values="0 0 0 0 0 0 0 0 0 0 0 0 0 0 0 0 0 0 0.25 0"/>
<feBlend mode="normal" in2="BackgroundImageFix" result="effect1_dropShadow_705_5757"/>
<feBlend mode="normal" in="SourceGraphic" in2="effect1_dropShadow_705_5757" result="shape"/>
</filter>
<filter id="filter1_d_705_5757" x="281.089" y="21.6422" width="15.8218" height="17.0373" filterUnits="userSpaceOnUse" color-interpolation-filters="sRGB">
<feFlood flood-opacity="0" result="BackgroundImageFix"/>
<feColorMatrix in="SourceAlpha" type="matrix" values="0 0 0 0 0 0 0 0 0 0 0 0 0 0 0 0 0 0 127 0" result="hardAlpha"/>
<feOffset dy="6"/>
<feGaussianBlur stdDeviation="2"/>
<feComposite in2="hardAlpha" operator="out"/>
<feColorMatrix type="matrix" values="0 0 0 0 0 0 0 0 0 0 0 0 0 0 0 0 0 0 0.25 0"/>
<feBlend mode="normal" in2="BackgroundImageFix" result="effect1_dropShadow_705_5757"/>
<feBlend mode="normal" in="SourceGraphic" in2="effect1_dropShadow_705_5757" result="shape"/>
</filter>
<filter id="filter2_d_705_5757" x="188.089" y="217.642" width="15.8218" height="17.0374" filterUnits="userSpaceOnUse" color-interpolation-filters="sRGB">
<feFlood flood-opacity="0" result="BackgroundImageFix"/>
<feColorMatrix in="SourceAlpha" type="matrix" values="0 0 0 0 0 0 0 0 0 0 0 0 0 0 0 0 0 0 127 0" result="hardAlpha"/>
<feOffset dy="6"/>
<feGaussianBlur stdDeviation="2"/>
<feComposite in2="hardAlpha" operator="out"/>
<feColorMatrix type="matrix" values="0 0 0 0 0 0 0 0 0 0 0 0 0 0 0 0 0 0 0.25 0"/>
<feBlend mode="normal" in2="BackgroundImageFix" result="effect1_dropShadow_705_5757"/>
<feBlend mode="normal" in="SourceGraphic" in2="effect1_dropShadow_705_5757" result="shape"/>
</filter>
<filter id="filter3_d_705_5757" x="62.7114" y="4.61359" width="15.2805" height="17.7975" filterUnits="userSpaceOnUse" color-interpolation-filters="sRGB">
<feFlood flood-opacity="0" result="BackgroundImageFix"/>
<feColorMatrix in="SourceAlpha" type="matrix" values="0 0 0 0 0 0 0 0 0 0 0 0 0 0 0 0 0 0 127 0" result="hardAlpha"/>
<feOffset dy="6"/>
<feGaussianBlur stdDeviation="2"/>
<feComposite in2="hardAlpha" operator="out"/>
<feColorMatrix type="matrix" values="0 0 0 0 0 0 0 0 0 0 0 0 0 0 0 0 0 0 0.25 0"/>
<feBlend mode="normal" in2="BackgroundImageFix" result="effect1_dropShadow_705_5757"/>
<feBlend mode="normal" in="SourceGraphic" in2="effect1_dropShadow_705_5757" result="shape"/>
</filter>
<filter id="filter4_d_705_5757" x="197.712" y="855.614" width="15.2805" height="17.7975" filterUnits="userSpaceOnUse" color-interpolation-filters="sRGB">
<feFlood flood-opacity="0" result="BackgroundImageFix"/>
<feColorMatrix in="SourceAlpha" type="matrix" values="0 0 0 0 0 0 0 0 0 0 0 0 0 0 0 0 0 0 127 0" result="hardAlpha"/>
<feOffset dy="6"/>
<feGaussianBlur stdDeviation="2"/>
<feComposite in2="hardAlpha" operator="out"/>
<feColorMatrix type="matrix" values="0 0 0 0 0 0 0 0 0 0 0 0 0 0 0 0 0 0 0.25 0"/>
<feBlend mode="normal" in2="BackgroundImageFix" result="effect1_dropShadow_705_5757"/>
<feBlend mode="normal" in="SourceGraphic" in2="effect1_dropShadow_705_5757" result="shape"/>
</filter>
<filter id="filter5_d_705_5757" x="0.711914" y="804.614" width="15.2805" height="17.7975" filterUnits="userSpaceOnUse" color-interpolation-filters="sRGB">
<feFlood flood-opacity="0" result="BackgroundImageFix"/>
<feColorMatrix in="SourceAlpha" type="matrix" values="0 0 0 0 0 0 0 0 0 0 0 0 0 0 0 0 0 0 127 0" result="hardAlpha"/>
<feOffset dy="6"/>
<feGaussianBlur stdDeviation="2"/>
<feComposite in2="hardAlpha" operator="out"/>
<feColorMatrix type="matrix" values="0 0 0 0 0 0 0 0 0 0 0 0 0 0 0 0 0 0 0.25 0"/>
<feBlend mode="normal" in2="BackgroundImageFix" result="effect1_dropShadow_705_5757"/>
<feBlend mode="normal" in="SourceGraphic" in2="effect1_dropShadow_705_5757" result="shape"/>
</filter>
<filter id="filter6_d_705_5757" x="20.3081" y="179.423" width="15.7141" height="17.5014" filterUnits="userSpaceOnUse" color-interpolation-filters="sRGB">
<feFlood flood-opacity="0" result="BackgroundImageFix"/>
<feColorMatrix in="SourceAlpha" type="matrix" values="0 0 0 0 0 0 0 0 0 0 0 0 0 0 0 0 0 0 127 0" result="hardAlpha"/>
<feOffset dy="6"/>
<feGaussianBlur stdDeviation="2"/>
<feComposite in2="hardAlpha" operator="out"/>
<feColorMatrix type="matrix" values="0 0 0 0 0 0 0 0 0 0 0 0 0 0 0 0 0 0 0.25 0"/>
<feBlend mode="normal" in2="BackgroundImageFix" result="effect1_dropShadow_705_5757"/>
<feBlend mode="normal" in="SourceGraphic" in2="effect1_dropShadow_705_5757" result="shape"/>
</filter>
<filter id="filter7_d_705_5757" x="31.3081" y="425.423" width="15.7141" height="17.5015" filterUnits="userSpaceOnUse" color-interpolation-filters="sRGB">
<feFlood flood-opacity="0" result="BackgroundImageFix"/>
<feColorMatrix in="SourceAlpha" type="matrix" values="0 0 0 0 0 0 0 0 0 0 0 0 0 0 0 0 0 0 127 0" result="hardAlpha"/>
<feOffset dy="6"/>
<feGaussianBlur stdDeviation="2"/>
<feComposite in2="hardAlpha" operator="out"/>
<feColorMatrix type="matrix" values="0 0 0 0 0 0 0 0 0 0 0 0 0 0 0 0 0 0 0.25 0"/>
<feBlend mode="normal" in2="BackgroundImageFix" result="effect1_dropShadow_705_5757"/>
<feBlend mode="normal" in="SourceGraphic" in2="effect1_dropShadow_705_5757" result="shape"/>
</filter>
<filter id="filter8_d_705_5757" x="61.3081" y="639.423" width="15.7141" height="17.5015" filterUnits="userSpaceOnUse" color-interpolation-filters="sRGB">
<feFlood flood-opacity="0" result="BackgroundImageFix"/>
<feColorMatrix in="SourceAlpha" type="matrix" values="0 0 0 0 0 0 0 0 0 0 0 0 0 0 0 0 0 0 127 0" result="hardAlpha"/>
<feOffset dy="6"/>
<feGaussianBlur stdDeviation="2"/>
<feComposite in2="hardAlpha" operator="out"/>
<feColorMatrix type="matrix" values="0 0 0 0 0 0 0 0 0 0 0 0 0 0 0 0 0 0 0.25 0"/>
<feBlend mode="normal" in2="BackgroundImageFix" result="effect1_dropShadow_705_5757"/>
<feBlend mode="normal" in="SourceGraphic" in2="effect1_dropShadow_705_5757" result="shape"/>
</filter>
<filter id="filter9_d_705_5757" x="143.308" y="496.423" width="15.7141" height="17.5015" filterUnits="userSpaceOnUse" color-interpolation-filters="sRGB">
<feFlood flood-opacity="0" result="BackgroundImageFix"/>
<feColorMatrix in="SourceAlpha" type="matrix" values="0 0 0 0 0 0 0 0 0 0 0 0 0 0 0 0 0 0 127 0" result="hardAlpha"/>
<feOffset dy="6"/>
<feGaussianBlur stdDeviation="2"/>
<feComposite in2="hardAlpha" operator="out"/>
<feColorMatrix type="matrix" values="0 0 0 0 0 0 0 0 0 0 0 0 0 0 0 0 0 0 0.25 0"/>
<feBlend mode="normal" in2="BackgroundImageFix" result="effect1_dropShadow_705_5757"/>
<feBlend mode="normal" in="SourceGraphic" in2="effect1_dropShadow_705_5757" result="shape"/>
</filter>
<filter id="filter10_d_705_5757" x="269.308" y="339.423" width="15.7141" height="17.5015" filterUnits="userSpaceOnUse" color-interpolation-filters="sRGB">
<feFlood flood-opacity="0" result="BackgroundImageFix"/>
<feColorMatrix in="SourceAlpha" type="matrix" values="0 0 0 0 0 0 0 0 0 0 0 0 0 0 0 0 0 0 127 0" result="hardAlpha"/>
<feOffset dy="6"/>
<feGaussianBlur stdDeviation="2"/>
<feComposite in2="hardAlpha" operator="out"/>
<feColorMatrix type="matrix" values="0 0 0 0 0 0 0 0 0 0 0 0 0 0 0 0 0 0 0.25 0"/>
<feBlend mode="normal" in2="BackgroundImageFix" result="effect1_dropShadow_705_5757"/>
<feBlend mode="normal" in="SourceGraphic" in2="effect1_dropShadow_705_5757" result="shape"/>
</filter>
<linearGradient id="paint0_linear_705_5757" x1="248.75" y1="697.5" x2="252.5" y2="694.5" gradientUnits="userSpaceOnUse">
<stop stop-color="#512895"/>
<stop offset="1" stop-color="#641089"/>
</linearGradient>
<linearGradient id="paint1_linear_705_5757" x1="286.75" y1="27.5" x2="290.5" y2="24.5" gradientUnits="userSpaceOnUse">
<stop stop-color="#512895"/>
<stop offset="1" stop-color="#641089"/>
</linearGradient>
<linearGradient id="paint2_linear_705_5757" x1="193.75" y1="223.5" x2="197.5" y2="220.5" gradientUnits="userSpaceOnUse">
<stop stop-color="#512895"/>
<stop offset="1" stop-color="#641089"/>
</linearGradient>
<linearGradient id="paint3_linear_705_5757" x1="68.3524" y1="8.29055" x2="73.1459" y2="7.99944" gradientUnits="userSpaceOnUse">
<stop stop-color="#512895"/>
<stop offset="1" stop-color="#641089"/>
</linearGradient>
<linearGradient id="paint4_linear_705_5757" x1="203.353" y1="859.291" x2="208.146" y2="858.999" gradientUnits="userSpaceOnUse">
<stop stop-color="#512895"/>
<stop offset="1" stop-color="#641089"/>
</linearGradient>
<linearGradient id="paint5_linear_705_5757" x1="6.35291" y1="808.291" x2="11.1464" y2="807.999" gradientUnits="userSpaceOnUse">
<stop stop-color="#512895"/>
<stop offset="1" stop-color="#641089"/>
</linearGradient>
<linearGradient id="paint6_linear_705_5757" x1="25.6947" y1="180.989" x2="29.7529" y2="183.557" gradientUnits="userSpaceOnUse">
<stop stop-color="#512895"/>
<stop offset="1" stop-color="#641089"/>
</linearGradient>
<linearGradient id="paint7_linear_705_5757" x1="36.6947" y1="426.989" x2="40.7529" y2="429.557" gradientUnits="userSpaceOnUse">
<stop stop-color="#512895"/>
<stop offset="1" stop-color="#641089"/>
</linearGradient>
<linearGradient id="paint8_linear_705_5757" x1="66.6947" y1="640.989" x2="70.7529" y2="643.557" gradientUnits="userSpaceOnUse">
<stop stop-color="#512895"/>
<stop offset="1" stop-color="#641089"/>
</linearGradient>
<linearGradient id="paint9_linear_705_5757" x1="148.695" y1="497.989" x2="152.753" y2="500.557" gradientUnits="userSpaceOnUse">
<stop stop-color="#512895"/>
<stop offset="1" stop-color="#641089"/>
</linearGradient>
<linearGradient id="paint10_linear_705_5757" x1="274.695" y1="340.989" x2="278.753" y2="343.557" gradientUnits="userSpaceOnUse">
<stop stop-color="#512895"/>
<stop offset="1" stop-color="#641089"/>
</linearGradient>
</defs>
</svg>
