<svg width="16" height="18" viewBox="0 0 16 18" fill="none" xmlns="http://www.w3.org/2000/svg">
<g filter="url(#filter0_d_804_1046)">
<path d="M7.07451 1.26377C7.41335 0.435062 8.58689 0.435061 8.92574 1.26377L9.93329 3.72795C9.96752 3.81166 10.013 3.89035 10.0683 3.96185L11.6986 6.06651C12.2469 6.77431 11.6601 7.79063 10.773 7.66972L8.13517 7.3102C8.04555 7.29799 7.95469 7.29799 7.86508 7.3102L5.22726 7.66972C4.34016 7.79063 3.75338 6.77431 4.30165 6.06651L5.93191 3.96185C5.98729 3.89035 6.03272 3.81166 6.06695 3.72795L7.07451 1.26377Z" fill="url(#paint0_linear_804_1046)"/>
</g>
<defs>
<filter id="filter0_d_804_1046" x="0.0893555" y="0.642242" width="15.8215" height="17.0374" filterUnits="userSpaceOnUse" color-interpolation-filters="sRGB">
<feFlood flood-opacity="0" result="BackgroundImageFix"/>
<feColorMatrix in="SourceAlpha" type="matrix" values="0 0 0 0 0 0 0 0 0 0 0 0 0 0 0 0 0 0 127 0" result="hardAlpha"/>
<feOffset dy="6"/>
<feGaussianBlur stdDeviation="2"/>
<feComposite in2="hardAlpha" operator="out"/>
<feColorMatrix type="matrix" values="0 0 0 0 0 0 0 0 0 0 0 0 0 0 0 0 0 0 0.25 0"/>
<feBlend mode="normal" in2="BackgroundImageFix" result="effect1_dropShadow_804_1046"/>
<feBlend mode="normal" in="SourceGraphic" in2="effect1_dropShadow_804_1046" result="shape"/>
</filter>
<linearGradient id="paint0_linear_804_1046" x1="5.75012" y1="6.5" x2="9.50012" y2="3.5" gradientUnits="userSpaceOnUse">
<stop stop-color="#512895"/>
<stop offset="1" stop-color="#641089"/>
</linearGradient>
</defs>
</svg>
