<svg width="128" height="128" viewBox="0 0 128 128" fill="none" xmlns="http://www.w3.org/2000/svg">
<rect width="128" height="128" rx="64" fill="url(#paint0_linear_606_1234)"/>
<path d="M56.6562 86.1875L57.5938 72.125L83.0625 49C83.5833 48.4792 83.6354 48.1667 83.2188 48.0625C82.8021 47.8542 82.1771 47.9583 81.3438 48.375L49.7812 68.375L36.1875 64C34.625 63.5833 33.8958 62.9583 34 62.125C34.1042 61.2917 35.0417 60.4583 36.8125 59.625L90.0938 39.1562C91.3438 38.6354 92.3854 38.7917 93.2188 39.625C94.0521 40.3542 94.2604 41.6562 93.8438 43.5312L84.7812 86.1875C84.0521 89.2083 82.3854 89.9896 79.7812 88.5312L66.0312 78.375L59.3125 84.7812C59 85.1979 58.6354 85.5625 58.2188 85.875C57.8021 86.0833 57.2812 86.1875 56.6562 86.1875Z" fill="white"/>
<defs>
<linearGradient id="paint0_linear_606_1234" x1="-1.17209e-06" y1="63.0986" x2="128" y2="63.0986" gradientUnits="userSpaceOnUse">
<stop stop-color="#4200E1"/>
<stop offset="1" stop-color="#FF22B6"/>
</linearGradient>
</defs>
</svg>
